<?xml version="1.0" encoding="UTF-8" standalone="no"?>
<svg
  xmlns="http://www.w3.org/2000/svg"
  xmlns:oryx="http://www.b3mn.org/oryx"
  width="40"
  height="40"
  version="1.0">
  <defs></defs>
  <oryx:magnets>
    <oryx:magnet oryx:cx="16" oryx:cy="16" oryx:default="yes" />
  </oryx:magnets>
  <oryx:docker oryx:cx="16" oryx:cy="16" />
  <g pointer-events="fill">
    <circle
      id="bg_frame"
      cx="16"
      cy="16"
      r="15"
      stroke="#F4E4CB"
      fill="#ffffff"
      stroke-width="2"
      style="stroke-dasharray: 5.5, 3" />

    <circle
      id="frame2_non_interrupting"
      cx="16"
      cy="16"
      r="12"
      stroke="#585858"
      fill="none"
      stroke-width="1"
      style="stroke-dasharray: 4.5, 3" />

    <circle id="frame" cx="16" cy="16" r="15" stroke="#F4E4CB" fill="none" stroke-width="2"/>
    <circle id="frame2" cx="16" cy="16" r="12" stroke="#585858" fill="none" stroke-width="1"/>

    <path id="path1" transform="translate(6,6)"
          d="M 10 0 C 4.4771525 0 0 4.4771525 0 10 C 0 15.522847 4.4771525 20 10 20 C 15.522847 20 20 15.522847 20 10 C 20 4.4771525 15.522847 1.1842379e-15 10 0 z M 9.09375 1.03125 C 9.2292164 1.0174926 9.362825 1.0389311 9.5 1.03125 L 9.5 3.5 L 10.5 3.5 L 10.5 1.03125 C 15.063526 1.2867831 18.713217 4.9364738 18.96875 9.5 L 16.5 9.5 L 16.5 10.5 L 18.96875 10.5 C 18.713217 15.063526 15.063526 18.713217 10.5 18.96875 L 10.5 16.5 L 9.5 16.5 L 9.5 18.96875 C 4.9364738 18.713217 1.2867831 15.063526 1.03125 10.5 L 3.5 10.5 L 3.5 9.5 L 1.03125 9.5 C 1.279102 5.0736488 4.7225326 1.4751713 9.09375 1.03125 z M 9.5 5 L 9.5 8.0625 C 8.6373007 8.2844627 8 9.0680195 8 10 C 8 11.104569 8.8954305 12 10 12 C 10.931981 12 11.715537 11.362699 11.9375 10.5 L 14 10.5 L 14 9.5 L 11.9375 9.5 C 11.756642 8.7970599 11.20294 8.2433585 10.5 8.0625 L 10.5 5 L 9.5 5 z "
          fill="#585858" stroke="none" />

    <text font-size="11"
          id="text_name"
          x="16" y="33"
          oryx:align="top center"
          stroke="#373e48"
    ></text>
  </g>
</svg>
