<?xml version="1.0" encoding="UTF-8" standalone="no"?>
<svg
  xmlns="http://www.w3.org/2000/svg"
  xmlns:svg="http://www.w3.org/2000/svg"
  xmlns:oryx="http://www.b3mn.org/oryx"
  xmlns:xlink="http://www.w3.org/1999/xlink"

  width="102"
  height="82"
  version="1.0">
  <defs></defs>
  <oryx:magnets>
    <oryx:magnet oryx:cx="1" oryx:cy="20" oryx:anchors="left" />
    <oryx:magnet oryx:cx="1" oryx:cy="40" oryx:anchors="left" />
    <oryx:magnet oryx:cx="1" oryx:cy="60" oryx:anchors="left" />

    <oryx:magnet oryx:cx="25" oryx:cy="79" oryx:anchors="bottom" />
    <oryx:magnet oryx:cx="50" oryx:cy="79" oryx:anchors="bottom" />
    <oryx:magnet oryx:cx="75" oryx:cy="79" oryx:anchors="bottom" />

    <oryx:magnet oryx:cx="99" oryx:cy="20" oryx:anchors="right" />
    <oryx:magnet oryx:cx="99" oryx:cy="40" oryx:anchors="right" />
    <oryx:magnet oryx:cx="99" oryx:cy="60" oryx:anchors="right" />

    <oryx:magnet oryx:cx="25" oryx:cy="1" oryx:anchors="top" />
    <oryx:magnet oryx:cx="50" oryx:cy="1" oryx:anchors="top" />
    <oryx:magnet oryx:cx="75" oryx:cy="1" oryx:anchors="top" />

    <oryx:magnet oryx:cx="50" oryx:cy="40" oryx:default="yes" />
  </oryx:magnets>
  <g pointer-events="fill" oryx:minimumSize="50 40">
    <rect id="text_frame" oryx:anchors="bottom top right left" x="1" y="1" width="94" height="79" rx="10" ry="10" stroke="none" stroke-width="0" fill="none" />
    <rect id="bg_frame" oryx:resize="vertical horizontal" x="0" y="0" width="100" height="80" rx="15" ry="15" stroke="#F4E4CB" stroke-width="2" fill="#FFF4DF" />
    <text
      font-size="12"
      id="text_name"
      x="50"
      y="40"
      oryx:align="middle center"
      oryx:fittoelem="text_frame"
      stroke="#373e48">
    </text>

    <g id="receiveTask" transform="translate(4,3)">
      <path oryx:anchors="left top"
            style="fill:#16964d;stroke:none;"
            d="m 0.5,2.5 0,13 17,0 0,-13 z M 2,4 6.5,8.5 2,13 z M 4,4 14,4 9,9 z m 12,0 0,9 -4.5,-4.5 z M 7.5,9.5 9,11 10.5,9.5 15,14 3,14 z"
      />
    </g>

    <g id="parallel">
      <path oryx:anchors="bottom" fill="none" stroke="#bbbbbb" d="M46 70 v8 M50 70 v8 M54 70 v8" stroke-width="2" />
    </g>

    <g id="sequential">
      <path oryx:anchors="bottom" fill="none" stroke="#bbbbbb" stroke-width="2" d="M46,76h10M46,72h10 M46,68h10"/>
    </g>
  </g>
</svg>
