<?xml version="1.0" encoding="utf-8"?>
<!-- Generator: Adobe Illustrator 15.0.0, SVG Export Plug-In . SVG Version: 6.00 Build 0)  -->
<!DOCTYPE svg PUBLIC "-//W3C//DTD SVG 1.1//EN" "http://www.w3.org/Graphics/SVG/1.1/DTD/svg11.dtd">
<svg version="1.1" id="图层_1" xmlns="http://www.w3.org/2000/svg" xmlns:xlink="http://www.w3.org/1999/xlink" x="0px" y="0px"
	 width="16px" height="16px" viewBox="0 0 16 16" enable-background="new 0 0 16 16" xml:space="preserve">
<path d="M13.852,12.473c-0.973,0-1.945-0.163-2.919-0.486c-0.244-0.084-0.568,0-0.813,0.161l-1.444,0.857
	C6.408,11.869,4,9.089,2.982,6.579l0.785-0.786c0.244-0.242,0.325-0.566,0.162-0.81C3.687,4.091,3.524,3.119,3.524,2.145
	c0-0.488-0.325-0.811-0.812-0.811H0.875c-0.486,0-0.812,0.323-0.812,0.811c0,7.625,6.165,13.788,13.788,13.788
	c0.487,0,0.811-0.326,0.811-0.811v-1.839C14.662,12.797,14.339,12.473,13.852,12.473z"/>
<g>
	<path fill="#070707" d="M8.758,9.545H8.211v1.002H7.352V9.545H5.366V8.937l1.907-2.979h0.938v2.9h0.547V9.545z M7.352,8.857V7.353
		c0-0.128,0.003-0.275,0.011-0.441H7.345C7.329,6.948,7.312,6.998,7.287,7.059c-0.025,0.063-0.061,0.134-0.11,0.21L6.163,8.857
		H7.352z"/>
	<path fill="#070707" d="M9.442,9.601c0.313,0.194,0.641,0.292,0.979,0.292c0.265,0,0.477-0.065,0.63-0.198
		c0.155-0.133,0.232-0.315,0.232-0.545c0-0.474-0.321-0.713-0.971-0.713c-0.194,0-0.439,0.018-0.739,0.054V5.957h2.464v0.788h-1.654
		v0.967c0.111-0.013,0.238-0.021,0.376-0.021c0.454,0,0.813,0.123,1.082,0.368c0.268,0.245,0.402,0.581,0.402,1.007
		c0,0.478-0.158,0.858-0.473,1.138c-0.313,0.284-0.729,0.425-1.25,0.425c-0.437,0-0.793-0.067-1.079-0.198V9.601z"/>
</g>
<g>
	<path fill="#070707" d="M8.213,4.854H5.396V4.092h0.94V1.155L5.368,1.378V0.592l1.908-0.41v3.909h0.937V4.854z"/>
	<path fill="#070707" d="M11.822,4.854h-2.94V4.102l1.295-1.266c0.271-0.265,0.461-0.487,0.571-0.667
		c0.108-0.181,0.164-0.367,0.164-0.561c0-0.436-0.23-0.654-0.691-0.654c-0.387,0-0.76,0.158-1.123,0.475V0.577
		c0.389-0.262,0.826-0.392,1.319-0.392c0.443,0,0.797,0.115,1.059,0.346c0.259,0.23,0.388,0.549,0.388,0.955
		c0,0.538-0.32,1.102-0.959,1.69L9.962,4.04v0.017h1.86V4.854z"/>
	<path fill="#070707" d="M12.681,3.855c0.298,0.229,0.652,0.344,1.053,0.344c0.254,0,0.457-0.058,0.606-0.171
		c0.149-0.115,0.226-0.278,0.226-0.489c0-0.217-0.09-0.383-0.269-0.498c-0.176-0.114-0.426-0.172-0.746-0.172h-0.403V2.13h0.37
		c0.608,0,0.909-0.208,0.909-0.623c0-0.391-0.23-0.587-0.695-0.587c-0.303,0-0.598,0.101-0.884,0.302V0.431
		c0.311-0.164,0.677-0.245,1.099-0.245c0.427,0,0.775,0.101,1.041,0.301c0.268,0.2,0.398,0.479,0.398,0.834
		c0,0.602-0.298,0.979-0.896,1.132v0.015c0.313,0.037,0.565,0.153,0.753,0.352c0.19,0.199,0.284,0.44,0.284,0.725
		c0,0.437-0.157,0.778-0.472,1.023c-0.313,0.245-0.731,0.368-1.255,0.368c-0.463,0-0.838-0.078-1.119-0.234V3.855z"/>
</g>
<path fill="#242424" d="M15.856,8.292c0-0.111-0.047-0.208-0.119-0.279l-1.035-1.053c-0.147-0.151-0.391-0.151-0.538,0
	c-0.149,0.151-0.149,0.397,0,0.549l0.389,0.395h-1.669c-0.211,0.001-0.381,0.174-0.381,0.389c0,0.213,0.17,0.388,0.381,0.388h1.67
	l-0.39,0.397c-0.149,0.151-0.149,0.396,0,0.548c0.147,0.151,0.39,0.151,0.538,0l1.037-1.056C15.811,8.498,15.856,8.401,15.856,8.292
	z"/>
</svg>
