<?xml version="1.0" standalone="no"?><!DOCTYPE svg PUBLIC "-//W3C//DTD SVG 1.1//EN" "http://www.w3.org/Graphics/SVG/1.1/DTD/svg11.dtd"><svg t="1584424383211" class="icon" viewBox="0 0 1024 1024" version="1.1" xmlns="http://www.w3.org/2000/svg" p-id="5069" xmlns:xlink="http://www.w3.org/1999/xlink" width="16" height="16"><defs><style type="text/css"></style></defs><path d="M252.672 811.52c2.176 6.4 3.328 13.312 3.328 20.48v128a64 64 0 0 1-64 64H64a64 64 0 0 1-64-64V832a64 64 0 0 1 64-64h128c4.224 0 8.384 0.384 12.416 1.216l564.8-564.8A64.32 64.32 0 0 1 768 192V64a64 64 0 0 1 64-64h128a64 64 0 0 1 64 64v128a64 64 0 0 1-64 64H832a63.936 63.936 0 0 1-20.48-3.328L252.672 811.52zM839.232 768H960a64 64 0 0 1 64 64v128a64 64 0 0 1-64 64H832a64 64 0 0 1-64-64V839.232L711.232 896h-90.56L896 620.672v90.56L839.232 768z m-664.64-512H64a64 64 0 0 1-64-64V64A64 64 0 0 1 64 0h128a64 64 0 0 1 64 64v110.592L302.592 128h90.496L128 393.088v-90.496L174.592 256zM664.64 128L128 664.64v-90.56L574.08 128h90.56zM896 439.68L439.68 896h-90.496L896 349.184v90.496z" p-id="5070"></path></svg>