<?xml version="1.0" encoding="utf-8"?>
<!-- Generator: Adobe Illustrator 15.0.0, SVG Export Plug-In . SVG Version: 6.00 Build 0)  -->
<!DOCTYPE svg PUBLIC "-//W3C//DTD SVG 1.1//EN" "http://www.w3.org/Graphics/SVG/1.1/DTD/svg11.dtd">
<svg version="1.1" id="图层_1" xmlns="http://www.w3.org/2000/svg" xmlns:xlink="http://www.w3.org/1999/xlink" x="0px" y="0px"
	 width="16px" height="16px" viewBox="0 0 16 16" enable-background="new 0 0 16 16" xml:space="preserve">
<path d="M7.418,4.64C7.239,4.469,7.03,4.334,6.791,4.234C6.549,4.133,6.293,4.081,6.023,4.081c-0.279,0-0.538,0.05-0.78,0.153
	C5.002,4.334,4.795,4.469,4.618,4.64c-0.179,0.17-0.32,0.371-0.425,0.603C4.086,5.474,4.034,5.718,4.034,5.977
	c0,0.26,0.053,0.504,0.159,0.735C4.299,6.943,4.439,7.146,4.618,7.32c0.177,0.174,0.386,0.313,0.626,0.414
	c0.242,0.102,0.501,0.152,0.78,0.152c0.27,0,0.526-0.051,0.767-0.152c0.242-0.101,0.449-0.24,0.627-0.414
	c0.177-0.174,0.319-0.376,0.424-0.607C7.947,6.481,8,6.237,8,5.977c0-0.259-0.053-0.503-0.158-0.734
	C7.737,5.009,7.595,4.809,7.418,4.64z M14.365,1.03H1.635c-0.868,0-1.571,0.674-1.571,1.507v10.682c0,0.832,0.703,1.508,1.571,1.508
	h12.728c0.869,0,1.572-0.676,1.572-1.508V2.537C15.938,1.705,15.234,1.03,14.365,1.03z M14.354,11.153
	c-0.168-0.373-0.365-0.752-0.59-1.142c-0.223-0.389-0.469-0.74-0.734-1.057c-0.268-0.315-0.557-0.573-0.869-0.772
	c-0.313-0.199-0.637-0.299-0.977-0.299c-0.396,0-0.734,0.075-1.014,0.224c-0.279,0.15-0.52,0.337-0.723,0.564
	C9.244,8.9,9.061,9.144,8.902,9.403c-0.16,0.259-0.322,0.502-0.481,0.729c-0.161,0.229-0.336,0.417-0.525,0.565
	c-0.19,0.148-0.416,0.224-0.679,0.224s-0.486-0.018-0.671-0.056c-0.187-0.038-0.354-0.083-0.5-0.14
	c-0.147-0.057-0.286-0.119-0.412-0.188c-0.126-0.069-0.265-0.132-0.412-0.189c-0.147-0.057-0.316-0.102-0.508-0.14
	c-0.19-0.037-0.415-0.055-0.679-0.055c-0.22,0-0.436,0.055-0.653,0.164c-0.215,0.109-0.424,0.248-0.627,0.418
	c-0.202,0.171-0.397,0.36-0.583,0.571c-0.187,0.212-0.354,0.422-0.508,0.633V3.222c0-0.373,0.316-0.675,0.706-0.675h11.279
	c0.389,0,0.705,0.302,0.705,0.675V11.153z"/>
</svg>
