<?xml version="1.0" standalone="no"?><!DOCTYPE svg PUBLIC "-//W3C//DTD SVG 1.1//EN" "http://www.w3.org/Graphics/SVG/1.1/DTD/svg11.dtd"><svg t="1583828072482" class="icon" viewBox="0 0 1024 1024" version="1.1" xmlns="http://www.w3.org/2000/svg" p-id="48408" xmlns:xlink="http://www.w3.org/1999/xlink" width="16" height="16"><defs><style type="text/css"></style></defs><path d="M870.4 17.066667H153.6C116.053333 17.066667 85.333333 47.786667 85.333333 85.333333v853.333334c0 37.546667 30.72 68.266667 68.266667 68.266666h523.707733a136.533333 136.533333 0 0 0 96.546134-39.9872l124.8256-124.8256A136.533333 136.533333 0 0 0 938.666667 745.5744V85.333333c0-37.546667-30.72-68.266667-68.266667-68.266666zM546.133333 785.066667H273.066667a34.133333 34.133333 0 0 1 0-68.266667h273.066666a34.133333 34.133333 0 0 1 0 68.266667z m204.8-238.933334H273.066667a34.133333 34.133333 0 0 1 0-68.266666h477.866666a34.133333 34.133333 0 0 1 0 68.266666z m0-238.933333H273.066667a34.133333 34.133333 0 0 1 0-68.266667h477.866666a34.133333 34.133333 0 0 1 0 68.266667z" fill="#040000" p-id="48409"></path></svg>