<?xml version="1.0" standalone="no"?><!DOCTYPE svg PUBLIC "-//W3C//DTD SVG 1.1//EN" "http://www.w3.org/Graphics/SVG/1.1/DTD/svg11.dtd"><svg t="1583829191251" class="icon" viewBox="0 0 1024 1024" version="1.1" xmlns="http://www.w3.org/2000/svg" p-id="75661" xmlns:xlink="http://www.w3.org/1999/xlink" width="16" height="16"><defs><style type="text/css"></style></defs><path d="M858 259.8H741.8v-44.6c0-56.1-45.7-101.8-101.8-101.8H383.6c-56.1 0-101.8 45.6-101.8 101.8v44.6H165.6c-56.1 0-101.8 45.7-101.8 101.8v446.5c0 56.1 45.7 101.8 101.8 101.8H858c56.1 0 101.8-45.6 101.8-101.8V592.4c-61.3 0-122.3 0.2-183.6 0.2v44.1c0 24.6-20.1 44.7-44.7 44.7s-44.7-20.1-44.7-44.7v-44.1H336.9v44.1c0 24.6-20.1 44.7-44.7 44.7s-44.7-20.1-44.7-44.7v-44.1c-61.4 0-122.4-0.1-183.6-0.1v-60.1c61.3 0 122.4-0.4 183.7-0.4 0.4-24.3 20.3-44.1 44.7-44.1 24.4 0 44.3 19.8 44.7 44.1h349.9c0.4-24.3 20.3-44.1 44.7-44.1 24.4 0 44.3 19.8 44.7 44.1 61.3 0 122.4 0.3 183.7 0.3V361.6c-0.2-56.1-45.8-101.8-102-101.8z m-515.6-44.5c0-22.7 18.5-41.2 41.2-41.2H640c22.7 0 41.2 18.5 41.2 41.2v44.6H342.4v-44.6z m0 0" fill="" p-id="75662"></path></svg>