<?xml version="1.0" standalone="no"?><!DOCTYPE svg PUBLIC "-//W3C//DTD SVG 1.1//EN" "http://www.w3.org/Graphics/SVG/1.1/DTD/svg11.dtd"><svg t="1583826321718" class="icon" viewBox="0 0 1024 1024" version="1.1" xmlns="http://www.w3.org/2000/svg" p-id="11480" xmlns:xlink="http://www.w3.org/1999/xlink" width="16" height="16"><defs><style type="text/css"></style></defs><path d="M858.3 260.1H742.1v-44.6c0-56.2-45.7-101.8-101.8-101.8H383.8c-56.1 0-101.8 45.7-101.8 101.8v44.6H165.7c-56.1 0-101.8 45.7-101.8 101.8v446.6c0 56.2 45.7 101.8 101.8 101.8h692.6c56.1 0 101.8-45.7 101.8-101.8V592.7c-61.3 0-122.3 0.2-183.7 0.2V637c0 24.6-20.1 44.7-44.7 44.7S687 661.6 687 637v-44.1H337V637c0 24.6-20.1 44.7-44.7 44.7s-44.7-20.1-44.7-44.7v-44.1c-61.4 0-122.4-0.1-183.7-0.1v-60.1c61.3 0 122.4-0.4 183.7-0.4 0.4-24.3 20.3-44.1 44.7-44.1 24.4 0 44.3 19.8 44.7 44.1h350c0.4-24.3 20.3-44.1 44.7-44.1 24.4 0 44.3 19.8 44.7 44.1 61.3 0 122.5 0.3 183.7 0.3V361.9c0-56.2-45.6-101.8-101.8-101.8z m-515.8-44.6c0-22.7 18.5-41.3 41.3-41.3h256.5c22.8 0 41.3 18.5 41.3 41.3v44.6h-339c-0.1 0-0.1-44.6-0.1-44.6z" fill="" p-id="11481"></path></svg>