<?xml version="1.0" standalone="no"?><!DOCTYPE svg PUBLIC "-//W3C//DTD SVG 1.1//EN" "http://www.w3.org/Graphics/SVG/1.1/DTD/svg11.dtd"><svg t="1583828619883" class="icon" viewBox="0 0 1024 1024" version="1.1" xmlns="http://www.w3.org/2000/svg" p-id="67478" xmlns:xlink="http://www.w3.org/1999/xlink" width="16" height="16"><defs><style type="text/css"></style></defs><path d="M428.404364 582.144c100.142545 99.653818 216.133818 194.932364 261.655272 148.875636 65.186909-65.768727 105.309091-123.066182 249.949091-7.470545 144.64 115.712 34.187636 193.536-28.974545 257.303273-72.890182 73.588364-345.739636 5.12-616.215273-263.819637C24.436364 447.930182-45.963636 175.010909 26.949818 101.422545c63.185455-63.767273 140.032-175.057455 256.465455-30.952727 116.456727 144.058182 59.671273 184.785455-5.515637 250.530909-45.521455 45.986909 50.338909 161.442909 150.481455 261.166546zM709.818182 442.181818a128 128 0 1 1 0-256 128 128 0 0 1 0 256z" p-id="67479"></path></svg>