<?xml version="1.0" encoding="utf-8"?>
<!-- Generator: Adobe Illustrator 15.0.0, SVG Export Plug-In . SVG Version: 6.00 Build 0)  -->
<!DOCTYPE svg PUBLIC "-//W3C//DTD SVG 1.1//EN" "http://www.w3.org/Graphics/SVG/1.1/DTD/svg11.dtd">
<svg version="1.1" id="图层_1" xmlns="http://www.w3.org/2000/svg" xmlns:xlink="http://www.w3.org/1999/xlink" x="0px" y="0px"
	 width="16px" height="16px" viewBox="0 0 16 16" enable-background="new 0 0 16 16" xml:space="preserve">
<path fill="#0C0C0C" d="M13.456,0.481c0.315,0,0.555,0.265,0.555,0.558v6.762c0,0.081-0.054,0.132-0.133,0.132h-1.006
	c-1.963-0.663-4.35-0.185-5.518,1.566c-1.483,2.256-0.265,4.8-0.265,4.8v0.979c0,0.081-0.054,0.133-0.132,0.133H2.158
	c-0.306-0.001-0.555-0.248-0.557-0.555V1.037c0-0.292,0.238-0.556,0.556-0.556H13.456z M7.806,7.191H7.779v-0.85
	c0-0.079-0.054-0.133-0.133-0.133H4.412c-0.081,0-0.132,0.054-0.132,0.133v0.849c0,0.08,0.053,0.133,0.132,0.133h3.261
	c0.079,0,0.132-0.053,0.132-0.133V7.191z M11.334,4.647h-0.026V3.796c0-0.08-0.054-0.133-0.133-0.133H4.41
	c-0.081,0-0.132,0.053-0.132,0.133v0.849c0,0.079,0.053,0.133,0.132,0.133h6.791c0.079,0,0.133-0.054,0.133-0.133V4.647z
	 M11.003,8.299c2.086-0.022,3.798,1.653,3.818,3.741c0,0.018,0,0.035,0,0.052c0,2.109-1.711,3.816-3.818,3.816
	c-2.1,0.011-3.807-1.683-3.817-3.779c0-0.004,0-0.007,0-0.012c0-2.121,1.721-3.82,3.817-3.82V8.299z M12.7,10.978
	c0.055-0.079,0-0.212-0.185-0.212h-0.771c-0.04,0.007-0.077,0.026-0.104,0.055l-1.115,1.536l-0.396-0.555
	c-0.028-0.029-0.055-0.055-0.109-0.055H9.254c-0.108,0-0.186,0.105-0.108,0.212l1.302,1.803c0.078,0.082,0.186,0.082,0.237,0
	L12.7,10.978z"/>
</svg>
