<?xml version="1.0" encoding="utf-8"?>
<!-- Generator: Adobe Illustrator 15.0.0, SVG Export Plug-In . SVG Version: 6.00 Build 0)  -->
<!DOCTYPE svg PUBLIC "-//W3C//DTD SVG 1.1//EN" "http://www.w3.org/Graphics/SVG/1.1/DTD/svg11.dtd">
<svg version="1.1" id="图层_1" xmlns="http://www.w3.org/2000/svg" xmlns:xlink="http://www.w3.org/1999/xlink" x="0px" y="0px"
	 width="16px" height="16px" viewBox="0 0 16 16" enable-background="new 0 0 16 16" xml:space="preserve">
<path d="M13.68-0.027H2.386c-1.3,0-2.354,1.053-2.354,2.353v11.293c0,1.301,1.054,2.354,2.354,2.354H13.68
	c1.301,0,2.354-1.053,2.354-2.354V2.326C16.033,1.026,14.98-0.027,13.68-0.027z M10.26,3.694c0-0.339,0.275-0.613,0.613-0.613V3.077
	c0.341,0,0.614,0.278,0.614,0.616v6.918c0,0.343-0.273,0.618-0.614,0.618c-0.338,0-0.613-0.275-0.613-0.618V3.694z M9.098,13.577
	c-0.211,0.212-0.647,0.317-1.278,0.317h-3.21c-0.832,0-1.241-0.396-1.241-1.19V6.433L3.18,6.621c-0.211,0.21-0.551,0.21-0.76,0.001
	C2.399,6.602,2.382,6.58,2.365,6.558c-0.21-0.29-0.178-0.689,0.079-0.938C2.63,5.44,2.78,5.292,2.893,5.174
	C3.834,4.186,4.687,3.119,5.44,1.982h0.926c1.024,1.071,2.003,2.184,2.931,3.337c0.23,0.291,0.187,0.712-0.1,0.948
	C8.976,6.437,8.658,6.395,8.489,6.173C8.366,6.011,8.243,5.851,8.12,5.69C7.303,4.64,6.605,3.797,6.01,3.171
	C5.322,4.188,4.557,5.166,3.685,6.103h4.093c0.294,0,0.53,0.237,0.53,0.527v3.118c-0.015,0.727-0.409,1.108-1.202,1.161
	c-0.515,0-1.005-0.014-1.466-0.039L5.335,9.694c0.488,0.054,0.912,0.081,1.281,0.081c0.304,0,0.462-0.16,0.462-0.45V7.211H4.622
	v5.032c0,0.316,0.171,0.487,0.529,0.487h2.297c0.396,0,0.647-0.104,0.74-0.303c0.104-0.211,0.185-0.661,0.236-1.335L9.6,11.489
	C9.494,12.639,9.335,13.339,9.098,13.577z M13.838,12.603c0,0.923-0.435,1.386-1.294,1.386v-0.004h-1.992l-0.292-1.2
	c0.646,0.054,1.269,0.079,1.849,0.079c0.315,0,0.478-0.197,0.478-0.581V2.584c0-0.345,0.278-0.628,0.625-0.628
	c0.346,0,0.627,0.283,0.627,0.628V12.603z"/>
</svg>
