<?xml version="1.0" encoding="utf-8"?>
<!-- Generator: Adobe Illustrator 15.0.0, SVG Export Plug-In . SVG Version: 6.00 Build 0)  -->
<!DOCTYPE svg PUBLIC "-//W3C//DTD SVG 1.1//EN" "http://www.w3.org/Graphics/SVG/1.1/DTD/svg11.dtd">
<svg version="1.1" id="图层_1" xmlns="http://www.w3.org/2000/svg" xmlns:xlink="http://www.w3.org/1999/xlink" x="0px" y="0px"
	 width="16px" height="16px" viewBox="0 0 16 16" enable-background="new 0 0 16 16" xml:space="preserve">
<g>
	<path d="M11.548,12.349H4.48c-0.545,0-0.992,0.419-0.992,0.93v0.759c0,0.51,0.447,0.926,0.992,0.926h7.068
		c0.545,0,0.99-0.416,0.99-0.926v-0.759C12.538,12.768,12.093,12.349,11.548,12.349z"/>
	<path d="M4.472,6.562h7.068c0.547,0,0.992-0.447,0.992-0.993V1.415H12.53c0-0.545-0.443-0.993-0.99-0.993H4.472
		c-0.544,0-0.99,0.447-0.99,0.993v4.154C3.482,6.115,3.928,6.562,4.472,6.562z"/>
	<path d="M14.65,3.291h-0.593c-0.497,0-0.912,0.286-0.912,0.997v1.819c0,0.539-0.448,0.98-0.992,0.98H3.875
		c-0.545,0-0.993-0.441-0.993-0.98V4.294c0-0.593-0.242-1.003-0.901-1.003H1.362c-0.728,0-1.321,0.588-1.321,1.306v8.166
		c0,0.721,0.594,1.307,1.321,1.307h0.929c0.432,0,0.587-0.241,0.587-0.672v-0.643c0-0.539,0.446-0.979,0.991-0.979h8.275
		c0.545,0,0.99,0.44,0.99,0.979v0.782c0,0.364,0.137,0.532,0.526,0.532h0.989c0.727,0,1.322-0.586,1.322-1.307V4.597
		C15.973,3.879,15.377,3.291,14.65,3.291z"/>
</g>
</svg>
