<?xml version="1.0" encoding="utf-8"?>
<!-- Generator: Adobe Illustrator 15.0.0, SVG Export Plug-In . SVG Version: 6.00 Build 0)  -->
<!DOCTYPE svg PUBLIC "-//W3C//DTD SVG 1.1//EN" "http://www.w3.org/Graphics/SVG/1.1/DTD/svg11.dtd">
<svg version="1.1" id="图层_1" xmlns="http://www.w3.org/2000/svg" xmlns:xlink="http://www.w3.org/1999/xlink" x="0px" y="0px"
	 width="16px" height="16px" viewBox="0 0 16 16" enable-background="new 0 0 16 16" xml:space="preserve">
<path fill="#333333" d="M3.983,7.26c0.292,0,0.531-0.239,0.531-0.517c0-0.292-0.239-0.518-0.531-0.518S3.452,6.464,3.452,6.743
	C3.452,7.021,3.691,7.26,3.983,7.26z M3.147,12.594h8.533c1.412,0,2.567-1.154,2.567-2.566V2.021c0-1.043-0.854-1.896-1.896-1.896
	H3.021c-1.043,0-1.896,0.853-1.896,1.896v12.058c0,1.044,0.853,1.896,1.896,1.896h9.331c0.746,0,1.395-0.436,1.703-1.063H3.147
	c-0.389,0-0.71-0.318-0.71-0.71v-0.897C2.438,12.914,2.756,12.594,3.147,12.594z M11.975,5.747c0.543,0,0.994,0.438,0.994,0.982
	s-0.451,0.982-0.994,0.982c-0.558,0-0.996-0.438-0.996-0.982S11.43,5.747,11.975,5.747z M2.403,6.729
	c0-0.863,0.704-1.553,1.58-1.553c0.723,0,1.313,0.482,1.499,1.128h3.28L7.766,5.335C7.607,5.189,7.594,4.924,7.739,4.764
	l0.026-0.027c0.16-0.172,0.426-0.172,0.598-0.013l0.014,0.013l2.03,1.992l-2.03,1.992c-0.16,0.172-0.426,0.172-0.598,0.012
	L7.766,8.721C7.607,8.573,7.594,8.308,7.739,8.148l0.026-0.027l0.997-0.969h-3.28C5.296,7.805,4.697,8.281,3.983,8.281
	C3.12,8.282,2.403,7.591,2.403,6.729z"/>
</svg>
