<?xml version="1.0" encoding="utf-8"?>
<!-- Generator: Adobe Illustrator 15.0.0, SVG Export Plug-In . SVG Version: 6.00 Build 0)  -->
<!DOCTYPE svg PUBLIC "-//W3C//DTD SVG 1.1//EN" "http://www.w3.org/Graphics/SVG/1.1/DTD/svg11.dtd">
<svg version="1.1" id="图层_1" xmlns="http://www.w3.org/2000/svg" xmlns:xlink="http://www.w3.org/1999/xlink" x="0px" y="0px"
	 width="16px" height="16px" viewBox="0 0 16 16" enable-background="new 0 0 16 16" xml:space="preserve">
<path d="M13.67,0.063H2.33c-1.248,0-2.268,1.02-2.268,2.268v11.34c0,1.246,1.02,2.269,2.268,2.269h11.34
	c1.246,0,2.268-1.021,2.268-2.269V2.33C15.938,1.083,14.916,0.063,13.67,0.063z M4.599,13.104c0,0.312-0.255,0.566-0.567,0.566
	H2.897c-0.312,0-0.567-0.256-0.567-0.566v-5.67c0-0.311,0.255-0.566,0.567-0.566h1.134c0.312,0,0.567,0.255,0.567,0.566
	L4.599,13.104L4.599,13.104z M9.145,13.104c0,0.312-0.254,0.566-0.565,0.566H7.444c-0.312,0-0.567-0.256-0.567-0.566V5.165
	c0-0.312,0.255-0.566,0.567-0.566h1.134c0.313,0,0.566,0.254,0.566,0.566V13.104L9.145,13.104z M13.67,13.104
	c0,0.312-0.256,0.566-0.566,0.566h-1.135c-0.313,0-0.566-0.256-0.566-0.566V6.299c0-0.311,0.255-0.566,0.566-0.566h1.135
	c0.312,0,0.566,0.255,0.566,0.566V13.104z"/>
</svg>
