<?xml version="1.0" standalone="no"?><!DOCTYPE svg PUBLIC "-//W3C//DTD SVG 1.1//EN" "http://www.w3.org/Graphics/SVG/1.1/DTD/svg11.dtd"><svg t="1584424369927" class="icon" viewBox="0 0 1024 1024" version="1.1" xmlns="http://www.w3.org/2000/svg" p-id="4831" xmlns:xlink="http://www.w3.org/1999/xlink" width="16" height="16"><defs><style type="text/css"></style></defs><path d="M672.832 104.512a19.776 19.776 0 0 0-28.352 0L6.016 757.952a20.928 20.928 0 0 0 0 29.12l124.096 127.104a55.936 55.936 0 0 0 34.368 14.592h397.824a55.552 55.552 0 0 0 34.368-14.592l419.328-429.312a20.992 20.992 0 0 0 0-29.184l-343.168-351.168zM557.184 836.608a55.296 55.296 0 0 1-34.432 14.656H214.784a55.296 55.296 0 0 1-34.368-14.656l-58.496-59.904a20.992 20.992 0 0 1 0-29.184l233.984-239.552a19.84 19.84 0 0 1 28.48 0l232.704 238.144c7.68 8 7.68 21.056 0 29.056l-59.904 61.44z" p-id="4832"></path></svg>