<?xml version="1.0" encoding="utf-8"?>
<!-- Generator: Adobe Illustrator 15.0.0, SVG Export Plug-In . SVG Version: 6.00 Build 0)  -->
<!DOCTYPE svg PUBLIC "-//W3C//DTD SVG 1.1//EN" "http://www.w3.org/Graphics/SVG/1.1/DTD/svg11.dtd">
<svg version="1.1" id="图层_1" xmlns="http://www.w3.org/2000/svg" xmlns:xlink="http://www.w3.org/1999/xlink" x="0px" y="0px"
	 width="16px" height="16px" viewBox="0 0 16 16" enable-background="new 0 0 16 16" xml:space="preserve">
<path d="M12.307,8.643c-2.023,0-3.664,1.641-3.664,3.664c0,2.021,1.641,3.662,3.664,3.662c2.021,0,3.662-1.641,3.662-3.662
	C15.969,10.282,14.328,8.643,12.307,8.643z M14.568,12.736c-0.11,0.109-0.264,0.18-0.432,0.18h-1.832
	c-0.337,0-0.611-0.273-0.611-0.609V9.863c0-0.336,0.274-0.61,0.611-0.61c0.168,0,0.32,0.067,0.432,0.179
	c0.109,0.11,0.18,0.264,0.18,0.433v1.831h1.221c0.336,0,0.61,0.273,0.61,0.611C14.747,12.475,14.68,12.626,14.568,12.736z"/>
<path d="M3.67,4.198c0,2.268,1.838,4.106,4.106,4.106s4.106-1.839,4.106-4.106c0-2.268-1.838-4.106-4.106-4.106
	S3.67,1.93,3.67,4.198z"/>
<path d="M7.804,14.207c0.176,0.417,0.407,0.802,0.687,1.15H0.679c-0.316,0-0.574-0.25-0.585-0.563v-0.066v-0.004
	c0.051-2.568,1.379-4.83,3.375-6.176c0.401-0.27,0.926-0.264,1.326,0.01c0.29,0.198,0.599,0.367,0.925,0.506
	c0.652,0.276,1.344,0.414,2.055,0.414c0.19,0,0.379-0.01,0.566-0.027c-0.214,0.294-0.395,0.615-0.538,0.953
	c-0.253,0.604-0.384,1.244-0.384,1.902C7.42,12.967,7.551,13.605,7.804,14.207z"/>
</svg>
