<?xml version="1.0" encoding="utf-8"?>
<!-- Generator: Adobe Illustrator 15.0.0, SVG Export Plug-In . SVG Version: 6.00 Build 0)  -->
<!DOCTYPE svg PUBLIC "-//W3C//DTD SVG 1.1//EN" "http://www.w3.org/Graphics/SVG/1.1/DTD/svg11.dtd">
<svg version="1.1" id="图层_1" xmlns="http://www.w3.org/2000/svg" xmlns:xlink="http://www.w3.org/1999/xlink" x="0px" y="0px"
	 width="16px" height="16px" viewBox="0 0 16 16" enable-background="new 0 0 16 16" xml:space="preserve">
<path fill="#0D345E" d="M6.441,14.232c0,0.391,0.308,0.705,0.688,0.705s0.689-0.314,0.689-0.705c0-0.392-0.307-0.707-0.688-0.707
	C6.75,13.524,6.442,13.841,6.441,14.232C6.441,14.232,6.441,14.232,6.441,14.232L6.441,14.232z"/>
<path fill="#0D345E" d="M9.777,12.797H1.782V1.846h9.3V1.139c0-0.586-0.463-1.06-1.032-1.06H1.782c-0.571,0-1.033,0.474-1.033,1.06
	v13.779c0,0.583,0.462,1.059,1.033,1.059h8.268c0.569,0,1.032-0.475,1.032-1.059v-2.117H9.777V12.797z M4.71,0.962
	c0-0.098,0.078-0.177,0.172-0.177h1.722c0.095,0,0.172,0.08,0.172,0.177v0.177c0,0.097-0.078,0.176-0.172,0.176H4.883
	c-0.095,0-0.172-0.079-0.172-0.176V0.962z M5.916,14.918c-0.38,0-0.689-0.317-0.689-0.708c0-0.39,0.309-0.705,0.689-0.705
	s0.689,0.315,0.689,0.705C6.605,14.601,6.297,14.918,5.916,14.918z"/>
<path fill="#0D345E" d="M6.042,3.582H3.333c-0.139,0-0.277,0.091-0.294,0.25C3.023,4,3.162,4.144,3.332,4.144h2.713
	c0.149,0,0.296-0.103,0.296-0.282C6.338,3.685,6.22,3.582,6.042,3.582z M4.806,10.23H3.504c-0.128,0-0.255,0.089-0.255,0.242
	s0.103,0.244,0.255,0.244h1.302c0.129,0,0.256-0.088,0.256-0.244C5.059,10.319,4.956,10.23,4.806,10.23z M5.681,11.01H4.669
	c-0.099,0-0.199,0.069-0.199,0.189c0,0.119,0.079,0.18,0.199,0.18h1.012c0.098,0,0.199-0.059,0.199-0.18
	C5.878,11.079,5.799,11.01,5.681,11.01z M5.77,5.158l4.023,2.673c0.103,0.085,0.31,0.085,0.413,0l4.178-2.802
	c0-0.216-0.259-0.387-0.516-0.387H6.13c-0.258,0-0.517,0.216-0.517,0.431v0.043C5.667,5.114,5.719,5.114,5.77,5.158z"/>
<path fill="#0D345E" d="M10.515,8.175c-0.153,0.086-0.309,0.129-0.517,0.129c-0.207,0-0.36-0.043-0.516-0.129L5.615,5.588v4.223
	c0,0.217,0.259,0.431,0.517,0.431h7.738c0.258,0,0.516-0.215,0.516-0.431V5.588L10.515,8.175z"/>
</svg>
