<?xml version="1.0" encoding="utf-8"?>
<!-- Generator: Adobe Illustrator 15.0.0, SVG Export Plug-In . SVG Version: 6.00 Build 0)  -->
<!DOCTYPE svg PUBLIC "-//W3C//DTD SVG 1.1//EN" "http://www.w3.org/Graphics/SVG/1.1/DTD/svg11.dtd">
<svg version="1.1" id="图层_1" xmlns="http://www.w3.org/2000/svg" xmlns:xlink="http://www.w3.org/1999/xlink" x="0px" y="0px"
	 width="16px" height="16px" viewBox="0 0 16 16" enable-background="new 0 0 16 16" xml:space="preserve">
<path d="M2.703,10.496l-1.375,3.111c0,0-0.241,0.541,0.474,0.859c0.713,0.317,1.147,0.036,1.209-0.018l1.341-1.186l0.016,1.788
	c0.001,0.083,0.083,0.595,0.797,0.91c0.714,0.319,0.955-0.223,0.955-0.223l1.251-2.83C5.489,12.77,3.833,11.855,2.703,10.496
	L2.703,10.496L2.703,10.496z M13.234,10.496l1.375,3.111c0,0,0.242,0.541-0.473,0.859c-0.714,0.317-1.146,0.036-1.21-0.018
	l-1.341-1.186l-0.016,1.788c-0.002,0.083-0.084,0.595-0.797,0.91c-0.715,0.319-0.955-0.223-0.955-0.223l-1.252-2.83
	C10.447,12.77,12.104,11.855,13.234,10.496L13.234,10.496L13.234,10.496z M7.969,0.004c3.352,0,6.067,2.717,6.067,6.068
	c0,3.352-2.716,6.067-6.067,6.067c-3.351,0-6.068-2.716-6.068-6.067C1.901,2.721,4.618,0.004,7.969,0.004L7.969,0.004z M8.209,3.098
	C8.16,3.005,8.072,2.952,7.967,2.95C7.863,2.948,7.772,3,7.72,3.091L6.798,4.694C6.755,4.768,6.689,4.814,6.605,4.83L4.934,5.132
	C4.831,5.15,4.752,5.217,4.718,5.316c-0.033,0.1-0.013,0.201,0.058,0.279l1.239,1.372c0.058,0.063,0.082,0.141,0.07,0.226
	l-0.23,1.682c-0.014,0.104,0.026,0.199,0.11,0.262C6.048,9.201,6.152,9.212,6.248,9.17l1.688-0.756
	C8.014,8.38,8.095,8.381,8.172,8.417l1.53,0.739c0.094,0.045,0.196,0.035,0.282-0.023c0.086-0.061,0.129-0.154,0.117-0.26
	L9.904,7.034c-0.01-0.085,0.019-0.162,0.078-0.223l1.175-1.227c0.071-0.076,0.095-0.176,0.063-0.276
	c-0.029-0.1-0.107-0.169-0.209-0.191l-1.81-0.382C9.118,4.717,9.053,4.67,9.012,4.594L8.209,3.098L8.209,3.098z"/>
</svg>
