<?xml version="1.0" standalone="no"?><!DOCTYPE svg PUBLIC "-//W3C//DTD SVG 1.1//EN" "http://www.w3.org/Graphics/SVG/1.1/DTD/svg11.dtd"><svg t="1584424182583" class="icon" viewBox="0 0 1024 1024" version="1.1" xmlns="http://www.w3.org/2000/svg" p-id="4236" xmlns:xlink="http://www.w3.org/1999/xlink" width="16" height="16"><defs><style type="text/css"></style></defs><path d="M503.04 425.216c0-3.008 0-3.008 0 0z m200.576 215.552h-5.952s2.944 3.008 5.952 0zM512 0C230.528 0 0 227.584 0 512s227.584 512 512 512c281.408 0 512-227.584 512-512s-227.584-512-512-512z m326.336 200.64c-17.856 0-29.888 0-44.864 8.96-6.016 3.008-8.96 9.024-17.984 12.032-5.952 3.008-14.848 0-20.928 3.008-23.936 8.96-20.992 56.896-50.88 50.88-15.04-3.072-24-20.992-33.024-32.96-5.888-9.024-17.856-17.92-8.96-29.952h-12.032c6.08-11.968 20.928-8.96 24-14.976 6.016-14.976-17.92-14.976-26.88-17.984 8.96-9.024 11.968 3.008 20.928 0s-3.008-12.032-9.024-14.976c-3.008 0-30.016 8.96-14.976-6.016-20.928-11.904-41.92-26.88-62.848-38.848-3.072 14.912 26.944 23.936 38.912 26.944-2.944 5.952-11.968 14.912-17.92 11.968s-3.072-14.976-14.976-11.968c-6.016 17.92 14.912 11.968 17.984 23.936 2.944 11.968-9.024 5.952-11.968 5.952 0 0-8.96-9.024-8.96-3.008s11.904 6.016 14.848 12.032c-14.848 0-23.936-6.016-35.904-12.032-15.04-8.96-20.992-8.96-38.912-8.96 5.952-3.008 11.968-3.008 17.984-6.016 3.008-3.008 11.968-11.968 11.968-14.912 2.944-9.024 0-9.024-8.96-14.976-3.008-3.008-11.968-14.976-23.936-14.976-32.96-5.952-12.032 29.952-35.968 35.904-6.016 0-17.92-2.944-20.928 2.944-3.008 3.072-3.008 12.032-6.016 15.04-6.016 5.952-14.976 5.952-20.928 11.968-6.016 3.008-20.992 14.976-24 20.992-14.976 26.944 29.952 35.904 47.936 41.92 8.96 3.008 29.888 8.96 32.896 14.976 6.016 9.024-5.952 14.976 6.016 20.992 3.008 2.944 11.968 2.944 14.976-3.072C521.024 269.44 512 269.44 512 260.48c-3.008-11.968 3.008-8.96 9.024-11.968 11.968-8.96 8.96-11.968 6.016-26.88-3.008-6.016-12.032-27.008-3.008-33.024 8.96-5.952 29.952 3.008 38.912 6.016 9.024 0 14.848 12.032 17.92 17.984 3.072 3.008 8.96 9.024 14.912 9.024 9.088 0 6.016-9.024 9.088-12.032 14.848-8.96 17.92 3.008 23.872 14.976 6.08 11.968 9.024 14.912 18.048 23.936 2.88 3.008 23.808 14.976 20.928 24 0 6.016-20.928 12.032-27.008 14.976-20.928 5.952-59.84-12.032-62.912 20.864 9.088-2.944 30.016-20.928 36.032-11.904 3.008 3.008-3.008 9.024 0 14.912 3.008 12.032 12.032 9.024 23.936 6.016h-2.944c12.032-6.016 12.032-6.016 17.92-14.912 3.008-3.008 6.016-12.032 8.96-14.976 8.96-8.96 12.032-2.944 17.984 3.008 2.944 3.008 14.912 23.936 11.968 20.928-17.92-3.008-32.896-3.008-47.872 6.016-8.96 6.016-14.976 11.968-24 14.976-2.944 0-20.928 3.008-17.92 0 3.008-3.072 11.968-6.016 17.92-12.032-11.968-6.016-20.992 6.016-29.952 11.968-8.96 3.008-12.032 11.968-17.856 20.992-3.072 2.944-9.024 2.944-12.032 8.96-3.072 3.008-3.072 8.96-6.016 14.976-3.008 3.008-8.96 0-8.96 6.016-3.008 5.952 2.88 8.96 0 14.912-3.008 6.016-14.976 11.968-20.928 17.984l3.008-3.008c-6.016 6.016-12.032 9.024-15.04 14.976 3.008 9.024 9.024 29.952 6.016 32.96-14.976 11.968-24-11.968-29.952-17.984-14.976-20.928-41.92-5.952-62.848-5.952-24 2.944-47.936 32.896-33.024 59.84A30.208 30.208 0 0 0 425.216 512c11.968-3.008 14.976-20.992 26.944-20.992 20.928 0 0 20.992 0 29.952-3.008 6.016 3.008 8.96 9.024 8.96s14.912-2.944 17.92 0c3.008 3.008 3.008 12.032 6.016 9.024-9.088 6.08-6.08 24 2.944 29.952 8.96 6.016 20.928 0 29.952 3.072 17.984 5.888 9.024 0 27.008-12.032 11.904-6.016 11.904 0 20.928 0 6.016 0 8.96-6.016 17.984-6.016 5.888 2.944 8.96 6.016 17.856 9.024h9.024c14.976 3.008 26.944 11.968 38.848 20.992 9.088 5.888 18.048 5.888 30.016 8.96 8.96 2.944 23.936 14.912 23.936 26.88 0 3.072-9.024 12.032-9.024 15.04 3.072 2.944 17.92-3.072 20.992-3.072 0 3.072-12.032 9.024-12.032 6.016 0 3.008 6.016 6.016 8.96 6.016 6.08-17.92 15.04-6.016 24-3.008s20.928 3.008 29.952 6.08c8.96 2.88 26.944 8.96 32.96 14.848 6.016 8.96 3.072 20.928-3.008 29.952-5.952 12.032-17.92 14.976-23.936 27.008-3.008 9.024 0 20.992-3.008 29.952-3.008 14.912-6.016 8.96-14.976 17.92-9.024 8.96 0 6.016-11.968 12.032-12.032 6.016-20.928 3.008-30.016 14.912v-2.944a62.72 62.72 0 0 0-5.952 17.92c-3.008 8.96-8.96 12.032-14.976 17.984-3.008 2.944-23.872 32.896-23.872 29.888-3.008-2.944-18.048 3.008-18.048 0 0 3.008 0 3.008 3.072 6.016-3.072 24-14.976 26.88-38.912 26.88 3.008 12.032-8.96 9.088-14.976 15.04-3.008 3.072-3.008 14.912-5.952 17.92 0 3.008-12.032 14.976-12.032 17.984 0 2.944 3.072 6.016 6.016 8.96-17.984 3.008-32.96 6.016-50.88 6.016 3.008-3.008 3.008-8.96-6.016-8.96 3.008-9.024 9.024-12.032 12.032-17.984v-9.024c3.008-11.904 3.008-6.016 0-14.912-6.016-20.928 3.008-26.944 8.96-47.936 5.952-20.928 5.952-44.864 9.024-68.864 3.008-8.96 6.016-32.96 0-41.92-3.072-12.032-20.992-20.928-29.952-26.88a159.36 159.36 0 0 1-27.008-36.032c-3.008-5.888-9.024-12.032-12.032-20.928-5.952-14.848 0-5.952 0-14.848 0-9.088 0-18.048 3.008-27.072 3.008-8.96 12.032-17.984 17.984-26.88 3.008-8.96 0-20.928-8.96-24-6.016-2.944-12.032 3.072-14.976 0-6.016 0-14.976-5.952-20.928-12.032-9.024-5.952-12.032-14.912-20.992-20.864-6.016-6.016-11.968-3.008-20.928-3.008-9.024-3.008-12.032-11.968-17.984-14.976-9.024-6.016-15.04 3.008-23.936 0-9.024 0-20.992-11.968-29.952-14.976-17.984-6.016-26.944-14.976-32.96-32.96-6.016-14.976-14.976-20.928-23.936-32.896-8.96-11.968-11.968-20.992-27.008-27.008-2.944 0 3.008 12.032 3.008 14.976 6.016 8.96 14.976 17.984 20.992 29.952 9.024 14.912 6.016 14.912-3.008 3.008a436.224 436.224 0 0 1-32.96-44.928c6.016 6.016 6.016 0 0-5.952-5.952-6.016-14.912-9.024-17.92-15.04-20.928-17.92-23.936-44.864-23.936-71.872 0-9.024 3.008-14.912 3.008-23.936 0-6.016-6.016-11.968-11.968-17.984-3.008-2.944-6.016-8.96-6.016-8.96-6.016-8.96-9.024-14.912-14.976-20.928a446.784 446.784 0 0 0-27.008-20.928 463.552 463.552 0 0 1 182.656-137.792c0 3.008 3.008 6.016 3.008 12.032 8.96 8.96 14.976 8.96 24 11.968 0 12.032-17.984 14.976-26.944 12.032-12.032-3.072-27.008-6.016-35.968 5.952 5.952 2.944 23.936 17.92 20.992 2.944h35.968c6.016 0 20.992 6.016 24 3.008 2.944 0 2.944-9.024 5.952-11.968-3.008 0-5.952-3.008-8.96 0 8.96-9.024 14.912-3.008 26.88 2.944-12.032 6.016-3.008 24 5.952 9.024 9.024-11.968-3.008-17.984-11.968-24 11.968-14.976 17.984-14.976 29.952 0 3.008-8.96 9.024-5.952 17.984-5.952v-2.944c-3.008 0-8.96-3.008-11.968-3.008 8.96-14.976 3.008-17.984 14.976-20.992 9.024-3.008 35.904 0 41.92-8.96-18.048 3.008-41.984 5.952-59.904 11.968-9.024 3.008-14.976 14.976-24 8.96-8.96-8.96 6.016-20.928 12.032-23.936h-3.008c29.952-5.952 62.848-8.96 95.808-8.96 20.992 0 41.92 3.008 62.848 3.008-6.016 3.008-3.072 5.952-6.016 8.96-8.96 5.952-27.008 11.968-38.912 17.92 14.976 0 50.88 14.976 56.896-5.952-6.016 0-8.96 0-15.04-3.008 9.088-5.952 18.048-11.968 30.016-14.912 86.848 20.928 170.688 68.8 230.528 134.72 3.008 0 0 0 0 0z m83.84 179.648c0-3.008 3.008-3.008 3.008-3.008 3.008-3.008 0-6.016 3.008-8.96 2.944-3.008 6.016-3.008 9.024-6.016l3.008-3.008c8.96 20.992 14.912 41.92 17.984 65.856l-9.088 3.008c-6.016 0-8.96-2.944-11.968-5.952l-12.032-12.032c-3.008-5.952 0-8.96 0-14.976-2.944-5.952-5.952-11.904-2.944-14.912z m6.016 233.536a188.608 188.608 0 0 1-23.936-26.944c-6.016-12.032-3.072-20.928-3.072-32.96 0-8.96-5.888-24 0-32.96l9.024-8.96c3.008-5.952 3.008-11.968 9.024-17.984 6.016-5.952 11.968-8.96 17.984-14.976 5.952-6.016 5.952-9.024 9.024-17.92 2.944-6.016 8.96-14.976 14.912-17.984 2.944 24 5.952 44.928 5.952 68.864 0 38.912-6.016 80.896-14.976 116.736a64.704 64.704 0 0 1-23.936-14.912z" p-id="4237"></path></svg>