<?xml version="1.0" encoding="utf-8"?>
<!-- Generator: Adobe Illustrator 15.0.0, SVG Export Plug-In . SVG Version: 6.00 Build 0)  -->
<!DOCTYPE svg PUBLIC "-//W3C//DTD SVG 1.1//EN" "http://www.w3.org/Graphics/SVG/1.1/DTD/svg11.dtd">
<svg version="1.1" id="图层_1" xmlns="http://www.w3.org/2000/svg" xmlns:xlink="http://www.w3.org/1999/xlink" x="0px" y="0px"
	 width="16px" height="16px" viewBox="0 0 16 16" enable-background="new 0 0 16 16" xml:space="preserve">
<path d="M14.853,9.098c-0.388-0.424-0.861-0.764-1.387-0.999c0.72-0.534,1.112-1.399,1.039-2.292
	c-0.053-0.692-0.38-1.333-0.908-1.779c-0.525-0.45-1.211-0.671-1.9-0.615c-0.266,0.033-0.46,0.268-0.437,0.534
	c0.022,0.266,0.249,0.468,0.515,0.457c0.888-0.067,1.666,0.594,1.739,1.483c0.034,0.43-0.103,0.848-0.383,1.176
	c-0.276,0.327-0.673,0.53-1.1,0.563c-0.11,0.011-0.213,0.058-0.292,0.134c-0.182,0.074-0.306,0.248-0.313,0.447
	c-0.007,0.132,0.041,0.259,0.127,0.357c0.09,0.097,0.214,0.156,0.347,0.161c0.853,0.041,1.64,0.413,2.217,1.045
	c0.574,0.631,0.869,1.451,0.828,2.305c-0.011,0.275,0.199,0.508,0.474,0.52s0.507-0.198,0.519-0.473
	C15.996,11.006,15.604,9.919,14.853,9.098z M4.446,8.563c0.089-0.098,0.136-0.226,0.13-0.357C4.567,8.009,4.444,7.835,4.261,7.762
	C4.182,7.687,4.081,7.64,3.974,7.628C3.545,7.595,3.147,7.392,2.87,7.064c-0.281-0.327-0.416-0.75-0.382-1.176
	C2.523,5.46,2.727,5.063,3.054,4.786c0.329-0.279,0.749-0.412,1.175-0.379C4.5,4.425,4.74,4.225,4.764,3.95
	c0.012-0.132-0.031-0.262-0.115-0.363C4.563,3.485,4.44,3.425,4.311,3.415C3.62,3.358,2.935,3.579,2.41,4.029
	C1.881,4.477,1.554,5.118,1.501,5.808C1.428,6.701,1.819,7.567,2.54,8.1c-1.578,0.703-2.56,2.299-2.477,4.018
	c0.012,0.267,0.231,0.476,0.497,0.476h0.023c0.132-0.008,0.255-0.063,0.345-0.16c0.089-0.099,0.135-0.228,0.127-0.359
	c-0.042-0.848,0.258-1.677,0.83-2.308C2.454,9.138,3.25,8.761,4.099,8.724C4.233,8.718,4.356,8.66,4.446,8.563z"/>
<path d="M9.951,8.229c0.9-0.631,1.438-1.664,1.438-2.763c-0.003-1.87-1.519-3.388-3.388-3.39c-1.87,0.002-3.387,1.52-3.39,3.39
	c0,1.142,0.572,2.15,1.44,2.763c-2.105,0.791-3.608,2.819-3.608,5.198c0,0.274,0.223,0.497,0.497,0.497l10.118-0.001
	c0.272,0,0.497-0.224,0.497-0.498C13.553,11.11,12.117,9.042,9.951,8.229z"/>
</svg>
