<?xml version="1.0" standalone="no"?><!DOCTYPE svg PUBLIC "-//W3C//DTD SVG 1.1//EN" "http://www.w3.org/Graphics/SVG/1.1/DTD/svg11.dtd"><svg t="1583828878846" class="icon" viewBox="0 0 1024 1024" version="1.1" xmlns="http://www.w3.org/2000/svg" p-id="74459" xmlns:xlink="http://www.w3.org/1999/xlink" width="16" height="16"><defs><style type="text/css"></style></defs><path d="M874.666667 0H149.333333C106.666667 0 70.4 17.066667 42.666667 44.8 17.066667 72.533333 0 108.8 0 149.333333v725.333334c0 83.2 66.133333 149.333333 149.333333 149.333333h725.333334c83.2 0 149.333333-66.133333 149.333333-149.333333V149.333333c0-83.2-66.133333-149.333333-149.333333-149.333333z m-64 676.266667c0 23.466667-19.2 40.533333-40.533334 40.533333h-277.333333c-17.066667 38.4-53.333333 64-98.133333 64s-81.066667-25.6-98.133334-64h-42.666666c-23.466667 0-40.533333-19.2-40.533334-40.533333v-2.133334c0-23.466667 19.2-40.533333 40.533334-40.533333h42.666666c17.066667-38.4 53.333333-64 98.133334-64s81.066667 25.6 98.133333 64h277.333333c23.466667 0 40.533333 19.2 40.533334 40.533333v2.133334z m0-320c0 23.466667-19.2 40.533333-40.533334 40.533333h-42.666666c-17.066667 38.4-53.333333 64-98.133334 64s-81.066667-25.6-98.133333-64h-277.333333c-23.466667 0-40.533333-19.2-40.533334-40.533333v-2.133334c0-23.466667 19.2-40.533333 40.533334-40.533333h277.333333c17.066667-38.4 53.333333-64 98.133333-64s81.066667 25.6 98.133334 64h42.666666c23.466667 0 40.533333 19.2 40.533334 40.533333v2.133334z" p-id="74460"></path></svg>