<?xml version="1.0" encoding="utf-8"?>
<!-- Generator: Adobe Illustrator 15.0.0, SVG Export Plug-In . SVG Version: 6.00 Build 0)  -->
<!DOCTYPE svg PUBLIC "-//W3C//DTD SVG 1.1//EN" "http://www.w3.org/Graphics/SVG/1.1/DTD/svg11.dtd">
<svg version="1.1" id="图层_1" xmlns="http://www.w3.org/2000/svg" xmlns:xlink="http://www.w3.org/1999/xlink" x="0px" y="0px"
	 width="16px" height="16px" viewBox="0 0 16 16" enable-background="new 0 0 16 16" xml:space="preserve">
<path d="M15.751,6.532l-0.89,0.281c-0.234,0.094-0.513-0.046-0.608-0.281c-0.094-0.235,0.046-0.515,0.282-0.608l0.889-0.281
	c0.234-0.094,0.515,0.047,0.609,0.281C16.125,6.205,15.984,6.485,15.751,6.532z M1.526,5.829c0.234,0.094,0.373,0.327,0.281,0.608
	c-0.094,0.187-0.328,0.327-0.608,0.28L0.31,6.438C0.074,6.343-0.064,6.11,0.028,5.829c0.094-0.235,0.327-0.375,0.608-0.281
	L1.526,5.829z M12.334,1.805c0.142-0.187,0.422-0.235,0.654-0.095c0.187,0.141,0.233,0.422,0.096,0.655l-0.563,0.749
	C12.381,3.301,12.1,3.35,11.866,3.208c-0.187-0.14-0.233-0.468-0.095-0.655L12.334,1.805z M3.584,3.068L3.021,2.272
	c-0.14-0.186-0.094-0.467,0.094-0.654C3.352,1.478,3.63,1.524,3.771,1.759l0.562,0.749c0.14,0.186,0.094,0.514-0.095,0.655
	C4.006,3.303,3.725,3.256,3.584,3.068z M7.608,1.478V0.542c0-0.281,0.186-0.468,0.467-0.468s0.468,0.187,0.468,0.468v0.936
	c0,0.281-0.187,0.468-0.468,0.468C7.797,1.945,7.608,1.759,7.608,1.478z M12.756,8.497v4.681H3.397V8.497
	c0-2.573,2.106-4.68,4.681-4.68C10.649,3.817,12.756,5.923,12.756,8.497z M2.461,15.049v-0.937h11.23v0.937
	c0,0.515-0.423,0.936-0.936,0.936H3.397C2.883,15.984,2.461,15.563,2.461,15.049z"/>
</svg>
