<?xml version="1.0" encoding="utf-8"?>
<!-- Generator: Adobe Illustrator 15.0.0, SVG Export Plug-In . SVG Version: 6.00 Build 0)  -->
<!DOCTYPE svg PUBLIC "-//W3C//DTD SVG 1.1//EN" "http://www.w3.org/Graphics/SVG/1.1/DTD/svg11.dtd">
<svg version="1.1" id="图层_1" xmlns="http://www.w3.org/2000/svg" xmlns:xlink="http://www.w3.org/1999/xlink" x="0px" y="0px"
	 width="16px" height="16px" viewBox="0 0 16 16" enable-background="new 0 0 16 16" xml:space="preserve">
<path fill="#334356" d="M8.031,16.02H1.818c-0.687,0-1.774,0-1.774-1.332c0-1.33,1.13-2.004,1.774-2.22
	c1.97-0.655,2.968-1.313,3.354-2.327C3.711,9.27,2.706,7.461,2.706,5.369c0-2.942,1.988-5.325,4.438-5.325
	c2.45,0,4.436,2.383,4.436,5.325c0,0.302-0.02,0.599-0.061,0.887C9.585,6.291,8.033,7.868,8.031,9.803V16.02z"/>
<path fill="#334356" d="M13.355,10.693V9.803c0-0.48-0.396-0.884-0.889-0.884s-0.888,0.396-0.888,0.884v0.891H13.355L13.355,10.693z
	 M9.807,10.693V9.803c0-1.469,1.191-2.661,2.664-2.661c1.469,0,2.659,1.191,2.66,2.661v0.891h0.002c0.489,0,0.887,0.399,0.887,0.88
	v3.567c0,0.482-0.401,0.879-0.887,0.879h-5.33c-0.484-0.002-0.879-0.393-0.884-0.879v-3.567c0-0.484,0.401-0.88,0.884-0.88H9.807
	L9.807,10.693z"/>
</svg>
