<?xml version="1.0" encoding="utf-8"?>
<!-- Generator: Adobe Illustrator 15.0.0, SVG Export Plug-In . SVG Version: 6.00 Build 0)  -->
<!DOCTYPE svg PUBLIC "-//W3C//DTD SVG 1.1//EN" "http://www.w3.org/Graphics/SVG/1.1/DTD/svg11.dtd">
<svg version="1.1" id="图层_1" xmlns="http://www.w3.org/2000/svg" xmlns:xlink="http://www.w3.org/1999/xlink" x="0px" y="0px"
	 width="16px" height="16px" viewBox="0 0 16 16" enable-background="new 0 0 16 16" xml:space="preserve">
<g>
	<path d="M11.679,13.444H3.654v-0.616H3.632l0.022-0.008V1.378h8.024v1.765l1.385,0.979v-3.47c0-0.348-0.285-0.632-0.633-0.632
		H2.827c-0.347,0-0.632,0.285-0.632,0.632v14.697c0,0.349,0.285,0.632,0.632,0.632h9.604c0.347,0,0.633-0.283,0.633-0.632v-2.521
		h-1.385V13.444z M9.002,14.87c0,0.109-0.091,0.201-0.203,0.201H6.55c-0.112,0-0.203-0.092-0.203-0.201v-0.298
		c0-0.11,0.091-0.203,0.203-0.203h2.249c0.112,0,0.203,0.093,0.203,0.203V14.87z"/>
	<path d="M8.474,9.426l-1.591,2.248c0.11,0.077,0.219,0.155,0.328,0.231c1.247-0.459,2.494-0.919,3.738-1.379
		c0.053-1.191,0.499-2.374,1.325-3.543L11.393,6.36l-0.004-0.002l-0.02-0.015l-0.023-0.016l-0.022-0.016l-0.022-0.015L11.28,6.282
		l-0.021-0.015L11.237,6.25l-0.022-0.015l-0.02-0.015l-0.02-0.015L11.15,6.19l-0.02-0.016l-0.024-0.015l-0.02-0.015l-0.021-0.016
		l-0.023-0.014l-0.021-0.015l-0.02-0.015l-0.025-0.016l-0.02-0.016l-0.021-0.015l-0.022-0.016l-0.02-0.015l-0.407-0.289
		l-0.024-0.015l-0.02-0.015L10.42,5.672l-0.022-0.015l-0.02-0.015l-0.022-0.015L10.333,5.61l-0.021-0.014l-0.023-0.015l-0.021-0.016
		l-0.02-0.015l-0.024-0.016L10.204,5.52l-0.021-0.016L10.16,5.489L10.14,5.474l-0.022-0.015l-0.021-0.015l-0.021-0.016l-0.021-0.016
		l-0.022-0.015l-0.021-0.015L9.989,5.367L9.967,5.352L9.945,5.337L9.925,5.322l-0.819-0.58C8.275,5.91,7.311,6.723,6.203,7.168
		c-0.019,1.328-0.038,2.656-0.057,3.985c0.109,0.076,0.219,0.154,0.329,0.233l1.591-2.249C7.792,8.809,7.762,8.327,8.02,7.959
		c0.309-0.435,0.912-0.538,1.347-0.23c0.435,0.308,0.539,0.911,0.231,1.348C9.339,9.441,8.874,9.575,8.474,9.426z"/>
	<polygon points="8.792,11.905 13.415,11.905 13.415,10.907 11.501,10.907 	"/>
	<rect x="8.678" y="4.147" transform="matrix(0.8163 0.5776 -0.5776 0.8163 4.8716 -5.624)" width="5.2" height="1.401"/>
</g>
</svg>
