<?xml version="1.0" encoding="utf-8"?>
<!-- Generator: Adobe Illustrator 15.0.0, SVG Export Plug-In . SVG Version: 6.00 Build 0)  -->
<!DOCTYPE svg PUBLIC "-//W3C//DTD SVG 1.1//EN" "http://www.w3.org/Graphics/SVG/1.1/DTD/svg11.dtd">
<svg version="1.1" id="图层_1" xmlns="http://www.w3.org/2000/svg" xmlns:xlink="http://www.w3.org/1999/xlink" x="0px" y="0px"
	 width="16px" height="16px" viewBox="0 0 16 16" enable-background="new 0 0 16 16" xml:space="preserve">
<path d="M14.501,7.041l0.231,0.146c0.474,0.297,0.616,0.92,0.317,1.396C14.972,8.71,14.861,8.818,14.732,8.9l-6.19,3.889
	c-0.33,0.206-0.748,0.206-1.076,0L1.269,8.893C0.794,8.596,0.651,7.971,0.949,7.497C1.03,7.369,1.139,7.26,1.269,7.178L1.5,7.033
	l5.964,3.751c0.331,0.206,0.749,0.206,1.077,0l5.959-3.742L14.501,7.041z M14.501,10.02l0.231,0.146
	c0.474,0.297,0.616,0.92,0.317,1.396c-0.078,0.129-0.188,0.233-0.317,0.316l-6.19,3.891c-0.33,0.205-0.748,0.205-1.076,0
	l-6.198-3.896c-0.473-0.298-0.616-0.922-0.319-1.396c0.081-0.129,0.189-0.237,0.319-0.319L1.5,10.014l5.964,3.747
	c0.331,0.206,0.749,0.206,1.077,0l5.959-3.741H14.501z M8.534,0.236l6.197,3.895c0.473,0.297,0.615,0.922,0.318,1.396
	c-0.08,0.129-0.19,0.238-0.318,0.32L8.542,9.734c-0.33,0.205-0.748,0.205-1.076,0L1.269,5.836C0.794,5.538,0.651,4.914,0.949,4.439
	C1.03,4.311,1.139,4.202,1.269,4.12L7.46,0.231c0.33-0.206,0.75-0.206,1.076,0L8.534,0.236z"/>
</svg>
