<?xml version="1.0" encoding="utf-8"?>
<!-- Generator: Adobe Illustrator 15.0.0, SVG Export Plug-In . SVG Version: 6.00 Build 0)  -->
<!DOCTYPE svg PUBLIC "-//W3C//DTD SVG 1.1//EN" "http://www.w3.org/Graphics/SVG/1.1/DTD/svg11.dtd">
<svg version="1.1" id="图层_1" xmlns="http://www.w3.org/2000/svg" xmlns:xlink="http://www.w3.org/1999/xlink" x="0px" y="0px"
	 width="16px" height="16px" viewBox="0 0 16 16" enable-background="new 0 0 16 16" xml:space="preserve">
<path d="M3.743,9.715v1.934c-0.003,0.338,0.268,0.614,0.605,0.617c0.004,0,0.008,0,0.011,0h1.935
	c0.322-0.002,0.629-0.132,0.857-0.359l4.716-4.726c0.48-0.481,0.48-1.261,0-1.743L10.57,4.132c-0.481-0.48-1.261-0.48-1.742,0
	L4.103,8.857C3.875,9.085,3.745,9.393,3.743,9.715z"/>
<path d="M11.166,1.787l1.336-1.335c0.58-0.581,1.16-0.581,1.741,0l1.308,1.307c0.58,0.581,0.58,1.161,0,1.741l-1.336,1.335
	c-0.58,0.58-1.161,0.58-1.741,0l-1.308-1.307C10.586,2.947,10.586,2.367,11.166,1.787z"/>
<path d="M13.35,16H2.648C1.187,15.998,0.001,14.813,0,13.352V2.65c0.001-1.462,1.187-2.647,2.648-2.648h5.742
	c0.463-0.027,0.86,0.327,0.888,0.79c0.026,0.463-0.327,0.86-0.79,0.887c-0.033,0.002-0.065,0.002-0.098,0H2.648
	c-0.537,0-0.972,0.435-0.972,0.972l0,0v10.702c0,0.537,0.435,0.972,0.972,0.972H13.35c0.537,0,0.973-0.435,0.973-0.972V9.924
	c0.026-0.463,0.424-0.816,0.887-0.79c0.426,0.024,0.765,0.364,0.789,0.79v3.428C15.997,14.813,14.813,15.998,13.35,16z"/>
</svg>
