<?xml version="1.0" standalone="no"?><!DOCTYPE svg PUBLIC "-//W3C//DTD SVG 1.1//EN" "http://www.w3.org/Graphics/SVG/1.1/DTD/svg11.dtd"><svg t="1584424194505" class="icon" viewBox="0 0 1024 1024" version="1.1" xmlns="http://www.w3.org/2000/svg" p-id="4355" xmlns:xlink="http://www.w3.org/1999/xlink" width="16" height="16"><defs><style type="text/css"></style></defs><path d="M512 325.824a186.112 186.112 0 1 0-0.064 372.288A186.112 186.112 0 0 0 512 325.824z m416.064 139.648a418.432 418.432 0 0 0-369.536-369.536V0H465.472v95.872a418.56 418.56 0 0 0-369.536 369.6H0v93.056h95.872a418.496 418.496 0 0 0 369.536 369.536V1024h93.056v-95.936A418.368 418.368 0 0 0 928 558.528H1024V465.472h-95.936zM512 837.76A325.76 325.76 0 1 1 512 186.24a325.76 325.76 0 0 1 0 651.52z" p-id="4356"></path></svg>