<?xml version="1.0" encoding="utf-8"?>
<!-- Generator: Adobe Illustrator 15.0.0, SVG Export Plug-In . SVG Version: 6.00 Build 0)  -->
<!DOCTYPE svg PUBLIC "-//W3C//DTD SVG 1.1//EN" "http://www.w3.org/Graphics/SVG/1.1/DTD/svg11.dtd">
<svg version="1.1" id="图层_1" xmlns="http://www.w3.org/2000/svg" xmlns:xlink="http://www.w3.org/1999/xlink" x="0px" y="0px"
	 width="16px" height="16px" viewBox="0 0 16 16" enable-background="new 0 0 16 16" xml:space="preserve">
<path fill="#47444F" d="M14.286,0.963H1.72c-0.944,0-1.713,0.77-1.713,1.713v7.998c0,0.943,0.77,1.713,1.713,1.713h3.633l2.65,2.499
	l2.649-2.499h3.634c0.944,0,1.714-0.77,1.714-1.713V2.676C16,1.732,15.23,0.963,14.286,0.963z M4.005,7.817
	c-0.631,0-1.143-0.511-1.143-1.143c0-0.63,0.512-1.143,1.143-1.143c0.63,0,1.142,0.513,1.142,1.143
	C5.147,7.307,4.635,7.817,4.005,7.817z M8.003,7.817c-0.63,0-1.142-0.511-1.142-1.143c0-0.63,0.512-1.143,1.142-1.143
	s1.142,0.513,1.142,1.143C9.145,7.307,8.633,7.817,8.003,7.817z M12.002,7.817c-0.63,0-1.143-0.511-1.143-1.143
	c0-0.63,0.513-1.143,1.143-1.143c0.629,0,1.143,0.513,1.143,1.143C13.145,7.307,12.631,7.817,12.002,7.817z"/>
</svg>
