<?xml version="1.0" standalone="no"?><!DOCTYPE svg PUBLIC "-//W3C//DTD SVG 1.1//EN" "http://www.w3.org/Graphics/SVG/1.1/DTD/svg11.dtd"><svg t="1585192957120" class="icon" viewBox="0 0 1024 1024" version="1.1" xmlns="http://www.w3.org/2000/svg" p-id="77486" xmlns:xlink="http://www.w3.org/1999/xlink" width="16" height="16"><defs><style type="text/css"></style></defs><path d="M128 0h768a128 128 0 0 1 128 128v576a128 128 0 0 1-128 128H128a128 128 0 0 1-128-128V128a128 128 0 0 1 128-128z m0 128v512h768V128H128z m352 576a32 32 0 1 0 0 64h64a32 32 0 1 0 0-64h-64zM320 896h384a64 64 0 0 1 0 128H320a64 64 0 0 1 0-128z" p-id="77487"></path></svg>