<?xml version="1.0" encoding="utf-8"?>
<!-- Generator: Adobe Illustrator 15.0.0, SVG Export Plug-In . SVG Version: 6.00 Build 0)  -->
<!DOCTYPE svg PUBLIC "-//W3C//DTD SVG 1.1//EN" "http://www.w3.org/Graphics/SVG/1.1/DTD/svg11.dtd">
<svg version="1.1" id="图层_1" xmlns="http://www.w3.org/2000/svg" xmlns:xlink="http://www.w3.org/1999/xlink" x="0px" y="0px"
	 width="16px" height="16px" viewBox="0 0 16 16" enable-background="new 0 0 16 16" xml:space="preserve">
<path fill="#2165AB" d="M14.568,12.637c0.093,0.629,0.629,0.536,0.721,0.813c0,0.175-0.092,0.813-0.361,0.896
	c-0.267,0-0.627-0.093-0.896,0c-0.176,0.093-0.36,0.176-0.453,0.361c-0.175,0.45,0.176,0.812,0,0.987
	c-0.268,0.176-0.813,0.452-0.988,0.27c-0.268-0.27-0.268-0.63-0.813-0.63c-0.722,0-0.722,0.721-1.081,0.721
	c-0.36,0-0.989-0.267-0.989-0.536c0.093-0.361,0.269-0.628-0.093-0.988c-0.452-0.36-0.988,0-1.173-0.176
	c-0.268-0.176-0.361-0.628-0.268-0.896s0.721-0.268,0.721-0.989c0-0.536-0.628-0.628-0.721-0.989
	c-0.093-0.267,0.093-0.721,0.361-0.812c0.453-0.176,0.72,0.175,1.173-0.176c0.269-0.269,0.176-0.897,0.176-1.08
	c0.093-0.27,0.452-0.361,0.721-0.361c0.535,0,0.359,0.628,1.082,0.72c0.719,0,0.627-0.267,0.988-0.72
	c0.452,0,0.813,0.176,0.896,0.361c0.176,0.358-0.176,0.895,0.36,1.256c0.453,0.268,0.896-0.093,1.173,0
	c0.176,0.093,0.27,0.359,0.361,0.72C15.289,11.915,14.476,11.824,14.568,12.637z M11.325,10.835
	c-2.162,0.535-1.349,3.687,0.721,3.335C14.125,13.717,13.848,10.382,11.325,10.835z M7.638,7.684c-2.163,0-3.872-1.709-3.872-3.872
	S5.476-0.06,7.638-0.06s3.873,1.709,3.873,3.872C11.511,5.882,9.801,7.684,7.638,7.684L7.638,7.684z M10.788,8.58
	c0,0-1.44,0-1.349,0.987c0.093,1.082-1.348,0.27-1.616,1.175c-0.36,1.082,0.175,0.896,0.452,1.617
	c0.176,0.453-0.721,0.721-0.628,1.533c0.176,1.082,1.082,0.537,1.349,1.174c0.177,0.536-0.452,0.897-1.894,0.897
	c-1.173,0-3.418,0-4.231-0.094c0,0-2.338-0.092-2.338-1.617c0,0-0.093-2.254,1.349-3.871c0,0,1.534-1.977,4.14-1.977L10.788,8.58z"
	/>
</svg>
