<?xml version="1.0" encoding="utf-8"?>
<!-- Generator: Adobe Illustrator 15.0.0, SVG Export Plug-In . SVG Version: 6.00 Build 0)  -->
<!DOCTYPE svg PUBLIC "-//W3C//DTD SVG 1.1//EN" "http://www.w3.org/Graphics/SVG/1.1/DTD/svg11.dtd">
<svg version="1.1" id="图层_1" xmlns="http://www.w3.org/2000/svg" xmlns:xlink="http://www.w3.org/1999/xlink" x="0px" y="0px"
	 width="16px" height="16px" viewBox="0 0 16 16" enable-background="new 0 0 16 16" xml:space="preserve">
<path d="M15.484,9.438h-1.963V8.322l0,0V7.7H8.551V6.483h2.17c0.42,0,0.629-0.21,0.629-0.629V0.817c0-0.419-0.209-0.629-0.629-0.629
	H5.685c-0.419,0-0.629,0.21-0.629,0.629v5.037c0,0.419,0.21,0.629,0.629,0.629h2.158V7.7h-4.96v1.735H0.629
	C0.21,9.438,0,9.646,0,10.066v5.035c0,0.42,0.21,0.631,0.629,0.631h5.037c0.419,0,0.629-0.211,0.629-0.631v-5.035
	c0-0.42-0.209-0.631-0.629-0.631H3.583V8.322h9.24v1.114H10.45c-0.421,0-0.63,0.211-0.63,0.631v5.035c0,0.42,0.209,0.631,0.63,0.631
	h5.034c0.422,0,0.629-0.211,0.629-0.631v-5.035C16.117,9.646,15.906,9.438,15.484,9.438z"/>
</svg>
