<?xml version="1.0" encoding="utf-8"?>
<!-- Generator: Adobe Illustrator 17.0.0, SVG Export Plug-In . SVG Version: 6.00 Build 0)  -->
<!DOCTYPE svg PUBLIC "-//W3C//DTD SVG 1.1//EN" "http://www.w3.org/Graphics/SVG/1.1/DTD/svg11.dtd">
<svg version="1.1" id="图层_1" xmlns="http://www.w3.org/2000/svg" xmlns:xlink="http://www.w3.org/1999/xlink" x="0px" y="0px"
	 width="128px" height="128px" viewBox="0 0 128 128" enable-background="new 0 0 128 128" xml:space="preserve">
<path d="M100.01,38.01l-5.479,5.479l16.635,16.635H56.25v7.75h54.916L94.531,84.51l5.479,5.479L126,64L100.01,38.01z"/>
<path d="M87.25,118.25H9.75V9.75h77.5v7.75H95V5.875C95,3.733,93.267,2,91.125,2H5.875C3.733,2,2,3.733,2,5.875v116.25
	C2,124.267,3.733,126,5.875,126h85.25c2.142,0,3.875-1.733,3.875-3.875V110.5h-7.75L87.25,118.25z"/>
</svg>
