<svg xmlns="http://www.w3.org/2000/svg" width="22.47" height="27.875" viewBox="0 0 22.47 27.875">
  <defs>
    <style>
      .cls-1 {
        fill: #c5c5c5;
        fill-rule: evenodd;
      }
    </style>
  </defs>
  <path id="password" class="cls-1" d="M1227.23,541h-17.11a2.705,2.705,0,0,1-2.69-2.718V526.739a2.7,2.7,0,0,1,2.69-2.718h0.66V521.33a7.9,7.9,0,1,1,15.79,0v2.7h0.66a2.7,2.7,0,0,1,2.69,2.718V538.3a2.7,2.7,0,0,1-2.69,2.7h0Zm-9.68-8.573v3.025a1.125,1.125,0,1,0,2.25,0v-3.025a2.255,2.255,0,1,0-2.25,0h0Zm6.77-11.18a5.646,5.646,0,1,0-11.29,0v2.774h11.29v-2.774Zm0,0" transform="translate(-1207.44 -513.125)"/>
</svg>
