<?xml version="1.0" encoding="utf-8"?>
<!-- Generator: Adobe Illustrator 15.0.0, SVG Export Plug-In . SVG Version: 6.00 Build 0)  -->
<!DOCTYPE svg PUBLIC "-//W3C//DTD SVG 1.1//EN" "http://www.w3.org/Graphics/SVG/1.1/DTD/svg11.dtd">
<svg version="1.1" id="图层_1" xmlns="http://www.w3.org/2000/svg" xmlns:xlink="http://www.w3.org/1999/xlink" x="0px" y="0px"
	 width="16px" height="16px" viewBox="0 0 16 16" enable-background="new 0 0 16 16" xml:space="preserve">
<path d="M10.131,6.725H5.81c-3.169,0-5.762,2.593-5.762,5.761v0.359c0,1.672,1.367,3.039,3.04,3.039h9.766
	c1.672,0,3.039-1.367,3.039-3.039v-0.359C15.893,9.318,13.299,6.725,10.131,6.725z M9.171,12.439H6.77
	c-0.624,0-1.135-0.51-1.135-1.135c0-0.621,0.51-1.134,1.135-1.134h2.401c0.623,0,1.134,0.513,1.134,1.134
	C10.305,11.93,9.794,12.439,9.171,12.439z"/>
<path d="M5,3.076C4.999,4.753,6.358,6.113,8.034,6.113c1.678,0,3.036-1.358,3.036-3.035V3.076c0-1.677-1.358-3.036-3.035-3.036
	C6.359,0.041,5,1.399,5,3.076z"/>
</svg>
