<?xml version="1.0" encoding="utf-8"?>
<!-- Generator: Adobe Illustrator 15.0.0, SVG Export Plug-In . SVG Version: 6.00 Build 0)  -->
<!DOCTYPE svg PUBLIC "-//W3C//DTD SVG 1.1//EN" "http://www.w3.org/Graphics/SVG/1.1/DTD/svg11.dtd">
<svg version="1.1" id="图层_1" xmlns="http://www.w3.org/2000/svg" xmlns:xlink="http://www.w3.org/1999/xlink" x="0px" y="0px"
	 width="16px" height="16px" viewBox="0 0 16 16" enable-background="new 0 0 16 16" xml:space="preserve">
<path d="M9.427,14.425l1.685-1.377l-1.272-0.729L9.427,14.425z M9.933,12.236l1.309,0.73l1.718-2.802l1.036-1.685l-0.99-0.554
	L12.69,7.75L9.933,12.236z M13.465,6.961c-0.19,0.046-0.355,0.165-0.46,0.33l-0.223,0.376l1.307,0.729l0.225-0.377
	c0.201-0.333,0.095-0.767-0.24-0.97c-0.009-0.006-0.021-0.013-0.03-0.02c-0.198-0.122-0.439-0.153-0.66-0.082L13.465,6.961z
	 M3.316,2.899c-0.65,0-1.176,0.528-1.176,1.178l0,0v0.624c0,0.65,0.526,1.177,1.176,1.177l0,0h0.825c0.65,0,1.177-0.527,1.177-1.177
	l0,0V4.077c0-0.65-0.527-1.178-1.177-1.178l0,0H3.316z M8.32,10.848H2.704c-0.377,0.069-0.625,0.432-0.555,0.809
	c0.052,0.283,0.273,0.503,0.555,0.556H8.32c0.376-0.07,0.627-0.433,0.555-0.81C8.823,11.119,8.602,10.899,8.32,10.848z M9.815,7.868
	H2.752c-0.377,0.07-0.626,0.433-0.555,0.811C2.249,8.96,2.469,9.182,2.752,9.232h7.063c0.377-0.068,0.626-0.432,0.555-0.809
	C10.318,8.142,10.098,7.92,9.815,7.868z M3.552-0.044h8.829c1.952,0,3.533,1.582,3.533,3.532v8.83c0,1.95-1.581,3.531-3.533,3.531
	l0,0H3.552c-1.951,0-3.532-1.581-3.532-3.531v-8.83C0.02,1.538,1.601-0.044,3.552-0.044z"/>
</svg>
