<?xml version="1.0" encoding="utf-8"?>
<!-- Generator: Adobe Illustrator 15.0.0, SVG Export Plug-In . SVG Version: 6.00 Build 0)  -->
<!DOCTYPE svg PUBLIC "-//W3C//DTD SVG 1.1//EN" "http://www.w3.org/Graphics/SVG/1.1/DTD/svg11.dtd">
<svg version="1.1" id="图层_1" xmlns="http://www.w3.org/2000/svg" xmlns:xlink="http://www.w3.org/1999/xlink" x="0px" y="0px"
	 width="16px" height="16px" viewBox="0 0 16 16" enable-background="new 0 0 16 16" xml:space="preserve">
<path d="M15.989,6.821v7.125c-0.012,0.608-0.222,1.117-0.634,1.528c-0.41,0.411-0.92,0.622-1.527,0.633H2.161
	c-0.608-0.011-1.118-0.222-1.528-0.633C0.222,15.063,0.011,14.555,0,13.946V6.922l6.483,3.681c0.495,0.271,1.035,0.404,1.621,0.404
	c0.584,0,1.124-0.134,1.621-0.404l0.438-0.22l3.664-2.162L15.989,6.821z M8.146,9.438c-0.321,0-0.622-0.085-0.902-0.254L2.381,6.381
	v-5.3c0-0.326,0.099-0.585,0.295-0.777C2.872,0.112,3.134,0.011,3.461,0h9.185c0.328,0.011,0.586,0.112,0.776,0.304
	c0.193,0.191,0.294,0.451,0.304,0.777v5.302L8.965,9.185C8.739,9.354,8.468,9.438,8.146,9.438L8.146,9.438z M6.247,4.837
	c0.282,0.411,0.72,0.779,1.317,1.106C7.733,6.056,7.93,6.113,8.156,6.113c0.224,0,0.422-0.057,0.592-0.169
	c0.54-0.372,0.945-0.757,1.214-1.157c0.271-0.398,0.405-0.841,0.405-1.325c0-0.326-0.111-0.603-0.337-0.828
	C9.806,2.41,9.524,2.291,9.186,2.28c-0.213,0-0.407,0.048-0.583,0.143C8.428,2.52,8.262,2.651,8.105,2.82
	c0,0.045-0.018,0.057-0.051,0.033L8.004,2.82C7.891,2.707,7.753,2.608,7.59,2.524C7.427,2.44,7.238,2.392,7.024,2.381
	C6.688,2.392,6.406,2.511,6.18,2.735C5.955,2.96,5.843,3.242,5.843,3.58C5.83,4.008,5.966,4.426,6.247,4.837z"/>
</svg>
