<?xml version="1.0" encoding="utf-8"?>
<!-- Generator: Adobe Illustrator 15.0.0, SVG Export Plug-In . SVG Version: 6.00 Build 0)  -->
<!DOCTYPE svg PUBLIC "-//W3C//DTD SVG 1.1//EN" "http://www.w3.org/Graphics/SVG/1.1/DTD/svg11.dtd">
<svg version="1.1" id="图层_1" xmlns="http://www.w3.org/2000/svg" xmlns:xlink="http://www.w3.org/1999/xlink" x="0px" y="0px"
	 width="16px" height="16px" viewBox="0 0 16 16" enable-background="new 0 0 16 16" xml:space="preserve">
<path fill="#040C32" d="M14.775,3.959H8.458L7.633,2.225C7.501,1.942,7.217,1.762,6.906,1.764H0.782
	c-0.439,0-0.796,0.357-0.796,0.797l0,0v11.35c0,0.688,0.557,1.245,1.244,1.245l0,0h13.559c0.688,0,1.245-0.557,1.245-1.245l0,0
	V5.203c0-0.687-0.557-1.244-1.245-1.245C14.786,3.958,14.781,3.958,14.775,3.959z M9.129,12.011H6.864v-1.691H5.088l2.908-3.592
	l2.908,3.606H9.129V12.011z"/>
</svg>
