<?xml version="1.0" encoding="utf-8"?>
<!-- Generator: Adobe Illustrator 15.0.0, SVG Export Plug-In . SVG Version: 6.00 Build 0)  -->
<!DOCTYPE svg PUBLIC "-//W3C//DTD SVG 1.1//EN" "http://www.w3.org/Graphics/SVG/1.1/DTD/svg11.dtd">
<svg version="1.1" id="图层_1" xmlns="http://www.w3.org/2000/svg" xmlns:xlink="http://www.w3.org/1999/xlink" x="0px" y="0px"
	 width="16px" height="16px" viewBox="0 0 16 16" enable-background="new 0 0 16 16" xml:space="preserve">
<path d="M15.714,14.139l-3.07-3.071c0.823-1.14,1.309-2.54,1.309-4.054c0-3.831-3.106-6.937-6.938-6.937S0.078,3.183,0.078,7.012
	c0,3.832,3.106,6.937,6.937,6.937c1.514,0,2.914-0.485,4.055-1.308l3.073,3.072c0.217,0.217,0.57,0.217,0.787,0l0.787-0.786
	C15.932,14.71,15.932,14.356,15.714,14.139L15.714,14.139z M2.06,7.012c0-2.736,2.219-4.955,4.955-4.955
	c2.737,0,4.955,2.219,4.955,4.955c0,2.736-2.218,4.955-4.955,4.955C4.278,11.967,2.06,9.751,2.06,7.012L2.06,7.012z"/>
</svg>
