<?xml version="1.0" standalone="no"?><!DOCTYPE svg PUBLIC "-//W3C//DTD SVG 1.1//EN" "http://www.w3.org/Graphics/SVG/1.1/DTD/svg11.dtd"><svg t="1584424376783" class="icon" viewBox="0 0 1024 1024" version="1.1" xmlns="http://www.w3.org/2000/svg" p-id="4950" xmlns:xlink="http://www.w3.org/1999/xlink" width="16" height="16"><defs><style type="text/css"></style></defs><path d="M1013.722619 235.959939L810.8501 32.447444c-40.766497-40.830494-86.268819-40.830494-114.235788-12.735531L21.055224 697.446922a72.253336 72.253336 0 0 0 0 101.884243l202.808521 203.512495a71.677357 71.677357 0 0 0 101.564255 0L1001.051086 325.108652c27.966969-28.094964 27.966969-73.725281 12.671533-89.148713zM311.796503 914.71891a35.838678 35.838678 0 0 1-50.750129 0l-30.782865-30.846863a36.222664 36.222664 0 0 1-0.895967-51.006119 35.710683 35.710683 0 0 1 51.646096 0l30.782865 30.846863a36.222664 36.222664 0 0 1 0 51.006119z m117.371671-117.755658a35.838678 35.838678 0 0 1-50.750128 0l-83.836909-84.092899a36.030671 36.030671 0 0 1 49.91816-51.902086c0.319988 0.255991 0.575979 0.639976 0.895967 1.023962l83.836908 84.028901a36.286662 36.286662 0 0 1-0.063998 50.942122z m122.683476-123.13146a35.646686 35.646686 0 0 1-50.750128 0l-30.782865-30.846862a36.222664 36.222664 0 0 1-0.895967-51.006119 35.710683 35.710683 0 0 1 50.750129-0.895967l0.895967 0.895967 30.782864 30.846862c14.079481 14.143478 14.079481 36.926638 0 51.006119z m117.371672-117.755657a35.838678 35.838678 0 0 1-50.750128 0l-83.836909-84.092899a35.902676 35.902676 0 1 1 49.91816-51.838089l0.895967 0.831969 83.836908 84.0929a36.222664 36.222664 0 0 1-0.063998 51.006119z m126.523335-126.907321a35.774681 35.774681 0 0 1-50.750129 0l-30.782865-30.91086a36.030671 36.030671 0 0 1-0.895967-50.878124 35.774681 35.774681 0 0 1 50.750129-0.895967l0.959965 0.895967 30.718867 30.910861a36.158667 36.158667 0 0 1 0 50.878123z m117.371672-117.755657a35.774681 35.774681 0 0 1-50.750129 0l-83.836908-84.092899a36.030671 36.030671 0 0 1-0.959965-50.878124 35.838678 35.838678 0 0 1 50.814126-0.895967l0.895967 0.895967 83.836909 84.092899a36.158667 36.158667 0 0 1 0 50.878124z" fill="#040000" p-id="4951"></path></svg>