<?xml version="1.0" encoding="utf-8"?>
<!-- Generator: Adobe Illustrator 15.0.0, SVG Export Plug-In . SVG Version: 6.00 Build 0)  -->
<!DOCTYPE svg PUBLIC "-//W3C//DTD SVG 1.1//EN" "http://www.w3.org/Graphics/SVG/1.1/DTD/svg11.dtd">
<svg version="1.1" id="图层_1" xmlns="http://www.w3.org/2000/svg" xmlns:xlink="http://www.w3.org/1999/xlink" x="0px" y="0px"
	 width="16px" height="16px" viewBox="0 0 16 16" enable-background="new 0 0 16 16" xml:space="preserve">
<path fill="#4C4C4C" d="M15.868,0.773c0-0.355-0.291-0.646-0.645-0.646c-0.12,0-0.228,0.032-0.324,0.089L0.478,7.83
	C0.269,7.935,0.132,8.169,0.132,8.411c0,0.243,0.137,0.461,0.355,0.573l3.742,2.049c0.096,0.04,0.201,0.065,0.29,0.065
	c0.25,0,0.467-0.138,0.58-0.356c0.154-0.313,0.024-0.709-0.29-0.87L2.196,8.395l10.471-5.549l-6.583,8.001
	c-0.096,0.129-0.153,0.274-0.153,0.419v3.959c0,0.349,0.299,0.647,0.646,0.647c0.347,0,0.645-0.299,0.645-0.647v-3.716l7.009-8.534
	l-1.355,10.856l-3.936-1.88c-0.08-0.048-0.177-0.064-0.282-0.064c-0.25,0-0.467,0.137-0.581,0.363
	c-0.072,0.154-0.089,0.331-0.033,0.492c0.057,0.17,0.17,0.298,0.323,0.371l4.75,2.242c0.081,0.048,0.179,0.063,0.282,0.063
	c0.098,0,0.203-0.023,0.301-0.071c0.184-0.099,0.313-0.274,0.337-0.476l1.831-14.019V0.829V0.773z"/>
</svg>
