<?xml version="1.0" standalone="no"?><!DOCTYPE svg PUBLIC "-//W3C//DTD SVG 1.1//EN" "http://www.w3.org/Graphics/SVG/1.1/DTD/svg11.dtd"><svg t="1565686084007" class="icon" viewBox="0 0 1024 1024" version="1.1" xmlns="http://www.w3.org/2000/svg" p-id="4365" xmlns:xlink="http://www.w3.org/1999/xlink" width="128" height="128"><defs><style type="text/css"></style></defs><path d="M928 224l-160 0L768 160c0-52.928-42.72-96-95.264-96L352 64C299.072 64 256 107.072 256 160l0 64L96 224C78.304 224 64 238.304 64 256c0 17.696 14.304 32 32 32l832 0c17.696 0 32-14.304 32-32C960 238.304 945.696 224 928 224zM320 160c0-17.632 14.368-32 32-32l320.736 0C690.272 128 704 142.048 704 160l0 64L320 224 320 160z" p-id="4366"></path><path d="M640 736 640 384c0-17.696-14.304-32-32-32-17.696 0-32 14.304-32 32l0 352c0 17.696 14.304 32 32 32C625.696 768 640 753.696 640 736z" p-id="4367"></path><path d="M448 736 448 384c0-17.696-14.304-32-32-32-17.696 0-32 14.304-32 32l0 352c0 17.696 14.304 32 32 32C433.696 768 448 753.696 448 736z" p-id="4368"></path><path d="M800.128 352.832c-17.696 0-32 14.336-32 32L768.128 864c0 17.664-14.336 32-32 32L288.064 896c-17.632 0-32-14.336-32-32L256.064 383.52c0-17.664-14.336-32-32-32s-32 14.336-32 32L192.064 864c0 52.928 43.072 96 96 96l448.064 0c52.928 0 96-43.072 96-96L832.128 384.832C832.128 367.168 817.824 352.832 800.128 352.832z" p-id="4369"></path></svg>