<?xml version="1.0" standalone="no"?><!DOCTYPE svg PUBLIC "-//W3C//DTD SVG 1.1//EN" "http://www.w3.org/Graphics/SVG/1.1/DTD/svg11.dtd"><svg t="1572576606246" class="icon" viewBox="0 0 1024 1024" version="1.1" xmlns="http://www.w3.org/2000/svg" p-id="2720" xmlns:xlink="http://www.w3.org/1999/xlink" width="128" height="128"><defs><style type="text/css"></style></defs><path d="M201.142857 54.857143v219.428571a54.857143 54.857143 0 0 0 54.857143 54.857143h438.857143a54.857143 54.857143 0 0 0 54.857143-54.857143V54.857143h6.272a73.142857 73.142857 0 0 1 51.730285 21.430857l139.995429 139.995429A73.142857 73.142857 0 0 1 969.142857 268.013714V896a73.142857 73.142857 0 0 1-73.142857 73.142857H128a73.142857 73.142857 0 0 1-73.142857-73.142857V128a73.142857 73.142857 0 0 1 73.142857-73.142857h73.142857z m54.857143 475.428571a54.857143 54.857143 0 0 0-54.857143 54.857143v219.428572a54.857143 54.857143 0 0 0 54.857143 54.857142h438.857143a54.857143 54.857143 0 0 0 54.857143-54.857142V585.142857a54.857143 54.857143 0 0 0-54.857143-54.857143H256zM603.428571 54.857143h36.571429a18.285714 18.285714 0 0 1 18.285714 18.285714v146.285714a18.285714 18.285714 0 0 1-18.285714 18.285715h-36.571429a18.285714 18.285714 0 0 1-18.285714-18.285715V73.142857a18.285714 18.285714 0 0 1 18.285714-18.285714z" p-id="2721"></path></svg>