<?xml version="1.0" standalone="no"?><!DOCTYPE svg PUBLIC "-//W3C//DTD SVG 1.1//EN" "http://www.w3.org/Graphics/SVG/1.1/DTD/svg11.dtd"><svg t="1583827155126" class="icon" viewBox="0 0 1024 1024" version="1.1" xmlns="http://www.w3.org/2000/svg" p-id="26114" xmlns:xlink="http://www.w3.org/1999/xlink" width="16" height="16"><defs><style type="text/css"></style></defs><path d="M853.333333 938.666667H170.666667a85.333333 85.333333 0 0 1-85.333334-85.333334V170.666667a85.333333 85.333333 0 0 1 85.333334-85.333334h64v64a85.333333 85.333333 0 0 0 170.666666 0V85.333333h213.333334v64a85.333333 85.333333 0 0 0 170.666666 0V85.333333h64a85.333333 85.333333 0 0 1 85.333334 85.333334v682.666666a85.333333 85.333333 0 0 1-85.333334 85.333334z m-138.666666-384h64a32 32 0 0 0 0-64h-64a32 32 0 0 0 0 64z m-234.666667 192h64a32 32 0 0 0 0-64h-64a32 32 0 0 0 0 64z m0-192h64a32 32 0 0 0 0-64h-64a32 32 0 0 0 0 64z m-234.666667 192h64a32 32 0 0 0 0-64h-64a32 32 0 0 0 0 64z m0-192h64a32 32 0 0 0 0-64h-64a32 32 0 0 0 0 64z m597.333334-256h-661.333334a32 32 0 0 0 0 64h661.333334a32 32 0 0 0 0-64zM704 192a42.666667 42.666667 0 0 1-42.666667-42.666667V64a42.666667 42.666667 0 0 1 85.333334 0v85.333333a42.666667 42.666667 0 0 1-42.666667 42.666667zM320 192a42.666667 42.666667 0 0 1-42.666667-42.666667V64a42.666667 42.666667 0 0 1 85.333334 0v85.333333a42.666667 42.666667 0 0 1-42.666667 42.666667z" p-id="26115"></path></svg>