<?xml version="1.0" encoding="utf-8"?>
<!-- Generator: Adobe Illustrator 15.0.0, SVG Export Plug-In . SVG Version: 6.00 Build 0)  -->
<!DOCTYPE svg PUBLIC "-//W3C//DTD SVG 1.1//EN" "http://www.w3.org/Graphics/SVG/1.1/DTD/svg11.dtd">
<svg version="1.1" id="图层_1" xmlns="http://www.w3.org/2000/svg" xmlns:xlink="http://www.w3.org/1999/xlink" x="0px" y="0px"
	 width="16px" height="16px" viewBox="0 0 16 16" enable-background="new 0 0 16 16" xml:space="preserve">
<path d="M7.436,7.279C6.993,6.956,6.552,6.632,6.19,6.35C5.95,6.148,5.709,5.986,5.508,5.824c-0.041-0.04-0.081-0.04-0.081-0.081
	C5.265,5.542,5.065,5.3,4.944,5.057c0-0.041-0.04-0.041-0.04-0.081C4.782,5.824,4.582,6.675,4.261,7.241
	C3.74,8.21,2.412,9.182,1.369,9.949c-0.2,0.16-0.402,0.322-0.602,0.445v0.039C0.605,10.596,0.486,10.798,0.365,11
	c-0.764,1.374-0.281,3.113,1.004,3.799c1.325,0.77,3.054,0.283,3.817-1.049c0.122-0.203,0.202-0.404,0.281-0.646
	c0.041-0.203,0.041-0.484,0.081-0.768c0.121-1.295,0.321-2.912,0.842-3.841C6.631,8.089,6.993,7.683,7.436,7.279z M3.78,12.98
	c-0.321,0.563-1.004,0.726-1.528,0.402c-0.521-0.322-0.723-1.01-0.402-1.535c0.321-0.524,1.004-0.728,1.526-0.404
	C3.898,11.766,4.101,12.455,3.78,12.98z M5.963,5.521c0.2,0.162,0.402,0.323,0.643,0.484C7.65,6.773,8.977,7.744,9.497,8.673
	c0.239,0.404,0.403,0.97,0.522,1.536c0.487-0.188,0.969-0.393,1.446-0.605c0.28-0.121,0.521-0.244,0.763-0.324
	c0.041-0.04,0.041-0.04,0.08-0.04c0.282-0.081,0.563-0.122,0.846-0.122h0.082c-0.686-0.523-1.285-1.13-1.607-1.696
	c-0.521-0.929-0.684-2.587-0.843-3.88c-0.04-0.282-0.04-0.525-0.08-0.767V2.732c-0.08-0.242-0.162-0.444-0.282-0.646
	c-0.763-1.374-2.49-1.82-3.856-0.97c-1.366,0.768-1.809,2.507-1.045,3.84C5.646,5.161,5.794,5.349,5.963,5.521z M7.41,2.529
	c0.523-0.323,1.206-0.121,1.527,0.404c0.32,0.525,0.121,1.212-0.402,1.535C8.014,4.792,7.331,4.589,7.01,4.064
	C6.687,3.499,6.887,2.812,7.41,2.529z M13.154,9.7c-0.24,0-0.482,0-0.723,0.079c-0.244,0.099-0.486,0.207-0.724,0.324
	c-1.165,0.523-2.651,1.17-3.735,1.17c-0.442,0-1.004-0.121-1.566-0.322c-0.081,0.525-0.162,1.052-0.2,1.535
	c0,0.324-0.04,0.606-0.081,0.85c0,0.04-0.04,0.04-0.04,0.081c-0.081,0.282-0.2,0.524-0.322,0.767c0,0.041-0.04,0.041-0.04,0.08
	C6.528,13.943,7.33,13.7,7.973,13.7c1.085,0,2.572,0.687,3.777,1.213c0.279,0.121,0.521,0.241,0.723,0.323h0.041
	c0.239,0.039,0.441,0.08,0.682,0.08c1.566,0,2.773-1.213,2.773-2.791C15.968,10.951,14.723,9.7,13.154,9.7z M13.193,13.661
	c-0.643,0-1.125-0.525-1.125-1.132c0-0.646,0.524-1.131,1.125-1.131c0.644,0,1.127,0.484,1.127,1.131
	C14.32,13.177,13.797,13.661,13.193,13.661z"/>
</svg>
