<?xml version="1.0" encoding="utf-8"?>
<!-- Generator: Adobe Illustrator 15.0.0, SVG Export Plug-In . SVG Version: 6.00 Build 0)  -->
<!DOCTYPE svg PUBLIC "-//W3C//DTD SVG 1.1//EN" "http://www.w3.org/Graphics/SVG/1.1/DTD/svg11.dtd">
<svg version="1.1" id="图层_1" xmlns="http://www.w3.org/2000/svg" xmlns:xlink="http://www.w3.org/1999/xlink" x="0px" y="0px"
	 width="16px" height="16px" viewBox="0 0 16 16" enable-background="new 0 0 16 16" xml:space="preserve">
<path d="M16.063,4.595H-0.063V3.444c0-0.636,0.516-1.152,1.151-1.152h1.569C2.636,2.23,2.625,2.165,2.625,2.1V1.332
	c0-0.318,0.258-0.576,0.575-0.576c0.318,0,0.576,0.258,0.576,0.576V2.1c0,0.067-0.011,0.132-0.032,0.192h8.511
	C12.234,2.23,12.223,2.165,12.223,2.1V1.332c0-0.318,0.258-0.576,0.576-0.576s0.576,0.258,0.576,0.576V2.1
	c0,0.067-0.012,0.132-0.033,0.192h1.568c0.637,0,1.152,0.516,1.152,1.152V4.595z M16.063,5.747v7.678
	c0,0.637-0.516,1.152-1.152,1.152H1.089c-0.635,0-1.151-0.516-1.151-1.152V5.747H16.063z M2.433,7.283
	c-0.318,0-0.576,0.258-0.576,0.575c0,0.318,0.258,0.576,0.576,0.576h3.455c0.318,0,0.576-0.258,0.576-0.576
	c0-0.317-0.258-0.575-0.576-0.575H2.433z"/>
</svg>
