<?xml version="1.0" encoding="utf-8"?>
<!-- Generator: Adobe Illustrator 15.0.0, SVG Export Plug-In . SVG Version: 6.00 Build 0)  -->
<!DOCTYPE svg PUBLIC "-//W3C//DTD SVG 1.1//EN" "http://www.w3.org/Graphics/SVG/1.1/DTD/svg11.dtd">
<svg version="1.1" id="图层_1" xmlns="http://www.w3.org/2000/svg" xmlns:xlink="http://www.w3.org/1999/xlink" x="0px" y="0px"
	 width="16px" height="16px" viewBox="0 0 16 16" enable-background="new 0 0 16 16" xml:space="preserve">
<path fill="#4D4D4D" d="M11.43,7.917l4.596,3.724V4.195L11.43,7.917z M9.6,9.398C9.146,9.766,8.592,9.947,8.037,9.947
	c-0.555,0-1.11-0.184-1.563-0.549L5.514,8.62l-5.452,4.415c0.052,0.396,0.248,0.748,0.531,1.003
	c0.136,0.121,0.292,0.221,0.462,0.291c0.194,0.083,0.406,0.129,0.628,0.129h12.704c0.282,0,0.547-0.074,0.778-0.199
	c0.163-0.09,0.312-0.204,0.435-0.343c0.217-0.241,0.364-0.547,0.409-0.883L10.561,8.62L9.6,9.398z M0.046,4.192v7.451l4.6-3.726
	L0.046,4.192z"/>
<path fill="#4D4D4D" d="M6.38,7.917l0.78,0.632c0.507,0.411,1.245,0.411,1.751,0l0.782-0.632l0.865-0.702l5.418-4.388
	c-0.17-0.722-0.818-1.26-1.592-1.26H1.684c-0.772,0-1.418,0.538-1.591,1.258l5.421,4.391L6.38,7.917z"/>
</svg>
