<?xml version="1.0" encoding="utf-8"?>
<!-- Generator: Adobe Illustrator 15.0.0, SVG Export Plug-In . SVG Version: 6.00 Build 0)  -->
<!DOCTYPE svg PUBLIC "-//W3C//DTD SVG 1.1//EN" "http://www.w3.org/Graphics/SVG/1.1/DTD/svg11.dtd">
<svg version="1.1" id="图层_1" xmlns="http://www.w3.org/2000/svg" xmlns:xlink="http://www.w3.org/1999/xlink" x="0px" y="0px"
	 width="16px" height="16px" viewBox="0 0 16 16" enable-background="new 0 0 16 16" xml:space="preserve">
<path d="M15.048,0.453H0.984c-0.506,0-0.915,0.411-0.915,0.915v10.335c0,0.396,0.319,0.714,0.714,0.714H15.05
	c0.506,0,0.914-0.411,0.914-0.915V1.368C15.964,0.862,15.553,0.453,15.048,0.453z M10.498,6.636L6.646,8.839
	C6.384,8.991,6.052,8.805,6.052,8.51V4.212c0-0.292,0.323-0.478,0.585-0.334l3.853,2.093C10.756,6.115,10.761,6.484,10.498,6.636z
	 M13.892,15.632H2.098c-0.011,0-0.019-0.009-0.019-0.02v-1.927c0-0.01,0.008-0.02,0.019-0.02h11.793c0.009,0,0.019,0.009,0.019,0.02
	v1.927C13.909,15.623,13.9,15.632,13.892,15.632z"/>
</svg>
