<?xml version="1.0" encoding="utf-8"?>
<!-- Generator: Adobe Illustrator 15.0.0, SVG Export Plug-In . SVG Version: 6.00 Build 0)  -->
<!DOCTYPE svg PUBLIC "-//W3C//DTD SVG 1.1//EN" "http://www.w3.org/Graphics/SVG/1.1/DTD/svg11.dtd">
<svg version="1.1" id="图层_1" xmlns="http://www.w3.org/2000/svg" xmlns:xlink="http://www.w3.org/1999/xlink" x="0px" y="0px"
	 width="16px" height="16px" viewBox="0 0 16 16" enable-background="new 0 0 16 16" xml:space="preserve">
<path d="M13.966,3.028H9.46L9.032,1.962C8.828,1.453,8.218,1.04,7.668,1.04H5.017c-0.549,0-1.16,0.413-1.364,0.922L3.227,3.028
	H2.034c-1.098,0-1.989,0.891-1.989,1.989v7.955c0,1.099,0.891,1.989,1.989,1.989h11.932c1.099,0,1.99-0.891,1.99-1.989V5.017
	C15.956,3.918,15.064,3.028,13.966,3.028z M8,12.309c-1.831,0-3.314-1.483-3.314-3.313C4.686,7.164,6.169,5.68,8,5.68
	c1.83,0,3.314,1.484,3.314,3.315C11.314,10.825,9.83,12.309,8,12.309z M12.641,6.011c-0.367,0-0.664-0.297-0.664-0.663
	c0-0.366,0.297-0.663,0.664-0.663c0.366,0,0.662,0.297,0.662,0.663C13.303,5.714,13.007,6.011,12.641,6.011z"/>
</svg>
