<?xml version="1.0" encoding="utf-8"?>
<!-- Generator: Adobe Illustrator 15.0.0, SVG Export Plug-In . SVG Version: 6.00 Build 0)  -->
<!DOCTYPE svg PUBLIC "-//W3C//DTD SVG 1.1//EN" "http://www.w3.org/Graphics/SVG/1.1/DTD/svg11.dtd">
<svg version="1.1" id="图层_1" xmlns="http://www.w3.org/2000/svg" xmlns:xlink="http://www.w3.org/1999/xlink" x="0px" y="0px"
	 width="16px" height="16px" viewBox="0 0 16 16" enable-background="new 0 0 16 16" xml:space="preserve">
<path d="M10.557,1.558C6.415,0.134,1.902,2.336,0.478,6.479C0.188,7.323,0.042,8.21,0.047,9.104
	c-0.004,0.961,0.106,1.922,0.33,2.856c0.011,0.171,0.147,0.308,0.318,0.317h14.532c0.18-0.03,0.328-0.15,0.397-0.317
	c0.185-0.942,0.294-1.897,0.329-2.856C15.984,5.682,13.805,2.632,10.557,1.558z M8,2.748c0.415-0.023,0.771,0.293,0.796,0.708
	c0.001,0.029,0.001,0.058,0,0.088c0.022,0.413-0.292,0.768-0.705,0.792C8.061,4.338,8.03,4.338,8,4.336
	C7.587,4.362,7.23,4.048,7.205,3.635c-0.002-0.03-0.002-0.061,0-0.091C7.181,3.129,7.498,2.772,7.912,2.748
	C7.941,2.747,7.971,2.747,8,2.748z M2.441,9.895C2.003,9.921,1.626,9.586,1.6,9.148C1.574,8.71,1.908,8.333,2.346,8.307
	c0.032-0.002,0.063-0.002,0.095,0c0.438-0.026,0.815,0.308,0.841,0.748c0.026,0.438-0.308,0.813-0.747,0.84
	C2.504,9.896,2.473,9.896,2.441,9.895z M4.666,5.768C4.37,6.075,3.88,6.084,3.573,5.789C3.566,5.782,3.559,5.775,3.552,5.768
	C3.254,5.436,3.221,4.943,3.473,4.575c0.293-0.308,0.78-0.319,1.088-0.025C4.57,4.558,4.578,4.567,4.586,4.575
	C4.886,4.906,4.919,5.4,4.666,5.768z M8,10.689c-0.875,0-1.667-0.795-1.42-1.588C6.827,8.31,8,5.938,8,5.938s1.189,2.381,1.42,3.175
	C9.65,9.909,8.874,10.689,8,10.689z M12.527,5.768c-0.307,0.307-0.807,0.307-1.112-0.001c-0.308-0.307-0.308-0.805,0-1.112
	c0.31-0.307,0.806-0.307,1.112,0C12.768,4.987,12.768,5.435,12.527,5.768z M13.559,9.895c-0.438,0-0.795-0.354-0.795-0.795
	c0-0.439,0.355-0.794,0.795-0.794c0.44,0,0.795,0.355,0.795,0.794c0,0,0,0.002,0,0.004c0.026,0.41-0.287,0.767-0.697,0.791
	C13.623,9.896,13.591,9.896,13.559,9.895z M13.371,14.639H2.629c-0.313,0-0.568-0.255-0.568-0.566c0-0.315,0.255-0.568,0.568-0.568
	h10.742c0.314,0,0.568,0.253,0.568,0.568C13.939,14.384,13.686,14.639,13.371,14.639z"/>
</svg>
