<?xml version="1.0" encoding="utf-8"?>
<!-- Generator: Adobe Illustrator 15.0.0, SVG Export Plug-In . SVG Version: 6.00 Build 0)  -->
<!DOCTYPE svg PUBLIC "-//W3C//DTD SVG 1.1//EN" "http://www.w3.org/Graphics/SVG/1.1/DTD/svg11.dtd">
<svg version="1.1" id="图层_1" xmlns="http://www.w3.org/2000/svg" xmlns:xlink="http://www.w3.org/1999/xlink" x="0px" y="0px"
	 width="16px" height="16px" viewBox="0 0 16 16" enable-background="new 0 0 16 16" xml:space="preserve">
<path fill="#333333" d="M12.553,2.175h-9.25C1.487,2.175,0,3.662,0,5.478v6.606c0,1.816,1.487,3.304,3.303,3.304h9.25
	c1.816,0,3.303-1.487,3.303-3.304V5.478C15.855,3.662,14.369,2.175,12.553,2.175z M6.277,5.189h0.661
	c0.363,0,0.661,0.297,0.661,0.661S7.301,6.511,6.938,6.511H6.277c-0.363,0-0.661-0.298-0.661-0.661S5.914,5.189,6.277,5.189z
	 M3.303,5.189h0.661c0.363,0,0.661,0.297,0.661,0.661S4.328,6.511,3.964,6.511H3.303c-0.363,0-0.661-0.298-0.661-0.661
	C2.644,5.487,2.94,5.189,3.303,5.189z M12.553,12.745h-9.25c-0.363,0-0.661-0.298-0.661-0.661s0.298-0.66,0.661-0.66h9.25
	c0.363,0,0.662,0.297,0.662,0.66S12.916,12.745,12.553,12.745z M12.553,9.442h-9.25c-0.363,0-0.661-0.298-0.661-0.661
	S2.94,8.12,3.303,8.12h9.25c0.363,0,0.662,0.298,0.662,0.661C13.213,9.145,12.916,9.442,12.553,9.442z"/>
</svg>
