<?xml version="1.0" encoding="utf-8"?>
<!-- Generator: Adobe Illustrator 15.0.0, SVG Export Plug-In . SVG Version: 6.00 Build 0)  -->
<!DOCTYPE svg PUBLIC "-//W3C//DTD SVG 1.1//EN" "http://www.w3.org/Graphics/SVG/1.1/DTD/svg11.dtd">
<svg version="1.1" id="图层_1" xmlns="http://www.w3.org/2000/svg" xmlns:xlink="http://www.w3.org/1999/xlink" x="0px" y="0px"
	 width="16px" height="16px" viewBox="0 0 16 16" enable-background="new 0 0 16 16" xml:space="preserve">
<path fill="#B57950" d="M15.516,4.435C15.516,4.435,15.516,4.435,15.516,4.435H14.03c-0.069,0-0.136,0.019-0.196,0.053l-0.669-2.036
	c-0.213-1.158-1.021-1.715-2.013-1.715H4.863c-1.138,0-1.83,0.75-2.012,1.715L2.179,4.494C2.117,4.457,2.045,4.436,1.973,4.435
	H0.488C0.258,4.436,0.073,4.623,0.074,4.852v0.001v0.362c0,0.229,0.185,0.416,0.414,0.417L1.05,5.729
	C0.872,6.08,0.771,6.48,0.771,6.947L0.563,9.349c0,0.071,0.005,0.143,0.014,0.212C0.568,9.606,0.564,9.651,0.563,9.696v2.89
	c-0.002,0.409,0.329,0.742,0.737,0.744h1.127c0.409-0.002,0.739-0.335,0.737-0.743v-0.001v-0.929h9.685v0.929
	c-0.002,0.409,0.328,0.742,0.736,0.744h1.128c0.409-0.002,0.74-0.335,0.738-0.743v-0.001v-2.89
	c-0.001-0.046-0.005-0.091-0.014-0.136c0.009-0.071,0.013-0.142,0.014-0.212l-0.209-2.402c0-0.468-0.101-0.868-0.28-1.22
	l0.552-0.094c0.229-0.002,0.413-0.188,0.412-0.417V4.853C15.929,4.624,15.744,4.437,15.516,4.435z M3.346,4.007l0.492-1.32
	l0.007-0.031c0.049-0.267,0.158-0.314,0.319-0.521h7.695c0.164,0.212,0.266,0.266,0.31,0.518l0.5,1.354l0.183,0.736
	c-0.043,0.539-0.684,0.964-1.217,0.964H4.379c-0.534,0-1.175-0.426-1.217-0.964L3.346,4.007z M3.69,10.288
	c-0.617,0-1.117-0.505-1.117-1.128s0.5-1.127,1.117-1.127c0.618,0,1.117,0.503,1.117,1.127S4.309,10.288,3.69,10.288z M9.934,9.456
	c0,0.184-0.15,0.334-0.333,0.335c-0.001,0-0.001,0-0.001,0H6.464C6.28,9.79,6.132,9.64,6.132,9.456V8.513
	c0-0.185,0.148-0.334,0.333-0.334h0h3.135c0.183,0,0.333,0.149,0.333,0.334V9.456z M12.324,10.288c-0.617,0-1.118-0.505-1.118-1.128
	s0.501-1.128,1.118-1.128c0.616,0,1.117,0.504,1.117,1.128C13.441,9.783,12.94,10.288,12.324,10.288z"/>
</svg>
