<?xml version="1.0" standalone="no"?><!DOCTYPE svg PUBLIC "-//W3C//DTD SVG 1.1//EN" "http://www.w3.org/Graphics/SVG/1.1/DTD/svg11.dtd"><svg t="1584424342451" class="icon" viewBox="0 0 1024 1024" version="1.1" xmlns="http://www.w3.org/2000/svg" p-id="4712" xmlns:xlink="http://www.w3.org/1999/xlink" width="16" height="16"><defs><style type="text/css"></style></defs><path d="M2.368 363.456a35.584 35.584 0 1 0 71.168 0 35.584 35.584 0 0 0-71.168 0zM73.408 221.248a35.584 35.584 0 1 0 71.168 0 35.584 35.584 0 0 0-71.168 0zM215.68 150.144a35.584 35.584 0 1 0 71.168-0.128 35.584 35.584 0 0 0-71.168 0.128zM357.888 150.144a35.584 35.584 0 1 0 71.168-0.128 35.584 35.584 0 0 0-71.168 0.128zM700.16 233.728a342.592 342.592 0 0 0-216.512 60.608 213.312 213.312 0 0 0-354.176 211.968C74.432 542.208 35.328 601.6 27.584 668.8c-7.424 64 12.8 128.192 55.616 176.384a225.088 225.088 0 0 0 168.064 75.328h426.688a340.736 340.736 0 0 0 248.064-105.728 341.184 341.184 0 0 0 95.424-252.16c-7.104-173.504-148.16-317.888-321.28-328.896zM192 446.4c0-78.4 63.808-142.208 142.208-142.208 35.328 0 69.056 13.12 94.976 36.416a340.928 340.928 0 0 0-83.968 150.016 225.088 225.088 0 0 0-149.568-13.568A145.408 145.408 0 0 1 192 446.4z" fill="#0E0E0F" p-id="4713"></path></svg>