<?xml version="1.0" encoding="utf-8"?>
<!-- Generator: Adobe Illustrator 15.0.0, SVG Export Plug-In . SVG Version: 6.00 Build 0)  -->
<!DOCTYPE svg PUBLIC "-//W3C//DTD SVG 1.1//EN" "http://www.w3.org/Graphics/SVG/1.1/DTD/svg11.dtd">
<svg version="1.1" id="图层_1" xmlns="http://www.w3.org/2000/svg" xmlns:xlink="http://www.w3.org/1999/xlink" x="0px" y="0px"
	 width="16px" height="16px" viewBox="0 0 16 16" enable-background="new 0 0 16 16" xml:space="preserve">
<path d="M11,14H5c-0.552,0-1,0.447-1,1s0.448,1,1,1h6c0.553,0,1-0.447,1-1S11.553,14,11,14z"/>
<path d="M14,0H2C0.896,0,0,0.896,0,2v9c0,1.104,0.896,2,2,2h12c1.104,0,2-0.896,2-2V2C16,0.896,15.104,0,14,0z M8.461,9.108
	L6.83,10.742c-0.427,0.424-1.111,0.424-1.535,0L3.757,9.205c-0.423-0.425-0.423-1.111,0-1.536l1.633-1.63
	c0.423-0.425,1.112-0.425,1.535,0l0.46,0.459l-1.38,1.381c-0.169,0.171-0.169,0.445,0,0.613C6.089,8.578,6.2,8.621,6.311,8.621
	S6.534,8.578,6.62,8.493L8,7.111l0.46,0.461C8.887,7.998,8.887,8.686,8.461,9.108z M12.244,5.328l-1.633,1.631
	c-0.426,0.424-1.111,0.424-1.535,0l-0.459-0.46l1.381-1.38c0.168-0.17,0.168-0.445,0-0.614c-0.17-0.17-0.447-0.17-0.615,0L8,5.884
	l-0.459-0.46c-0.424-0.423-0.424-1.11,0-1.534l1.631-1.633c0.424-0.423,1.109-0.423,1.535,0l1.537,1.538
	C12.666,4.217,12.666,4.902,12.244,5.328z"/>
</svg>
