<?xml version="1.0" encoding="utf-8"?>
<!-- Generator: Adobe Illustrator 15.0.0, SVG Export Plug-In . SVG Version: 6.00 Build 0)  -->
<!DOCTYPE svg PUBLIC "-//W3C//DTD SVG 1.1//EN" "http://www.w3.org/Graphics/SVG/1.1/DTD/svg11.dtd">
<svg version="1.1" id="图层_1" xmlns="http://www.w3.org/2000/svg" xmlns:xlink="http://www.w3.org/1999/xlink" x="0px" y="0px"
	 width="16px" height="16px" viewBox="0 0 16 16" enable-background="new 0 0 16 16" xml:space="preserve">
<path d="M15.348,5.375l-2.5,2.5c-0.612,0.613-1.609,0.613-2.221,0l-2.502-2.5c-0.613-0.613-0.613-1.609,0-2.222l2.502-2.5
	c0.611-0.614,1.608-0.614,2.221,0l2.5,2.5C15.962,3.766,15.962,4.761,15.348,5.375z M5.253,15.854H1.717
	c-0.868,0-1.571-0.703-1.571-1.57v-3.535c0-0.869,0.703-1.573,1.571-1.573h3.536c0.868,0,1.572,0.704,1.572,1.573v3.535
	C6.825,15.15,6.122,15.854,5.253,15.854z M5.253,7.603H1.717c-0.868,0-1.571-0.703-1.571-1.571l0,0V2.496
	c0-0.868,0.703-1.572,1.571-1.572l0,0h3.536c0.868,0,1.572,0.704,1.572,1.572l0,0v3.536C6.825,6.9,6.122,7.603,5.253,7.603
	L5.253,7.603z M9.969,9.175h3.535c0.867,0,1.572,0.704,1.572,1.573v3.535c0,0.867-0.705,1.57-1.572,1.57H9.969
	c-0.869,0-1.572-0.703-1.572-1.57v-3.535C8.397,9.879,9.1,9.175,9.969,9.175z"/>
</svg>
