<?xml version="1.0" encoding="utf-8"?>
<!-- Generator: Adobe Illustrator 15.0.0, SVG Export Plug-In . SVG Version: 6.00 Build 0)  -->
<!DOCTYPE svg PUBLIC "-//W3C//DTD SVG 1.1//EN" "http://www.w3.org/Graphics/SVG/1.1/DTD/svg11.dtd">
<svg version="1.1" id="图层_1" xmlns="http://www.w3.org/2000/svg" xmlns:xlink="http://www.w3.org/1999/xlink" x="0px" y="0px"
	 width="16px" height="16px" viewBox="0 0 16 16" enable-background="new 0 0 16 16" xml:space="preserve">
<path d="M10.823,4.831c0.184,0,0.363,0.013,0.543,0.034c-0.487-2.272-2.916-3.961-5.69-3.961c-3.1,0-5.639,2.113-5.639,4.796
	c0,1.549,0.845,2.82,2.256,3.808l-0.563,1.695l1.972-0.988c0.706,0.14,1.271,0.283,1.975,0.283c0.177,0,0.353-0.009,0.527-0.021
	c-0.11-0.378-0.174-0.772-0.174-1.183C6.029,6.831,8.145,4.831,10.823,4.831L10.823,4.831z M7.791,3.302
	c0.425,0,0.706,0.28,0.706,0.704c0,0.422-0.28,0.706-0.706,0.706c-0.422,0-0.847-0.283-0.847-0.706
	C6.944,3.582,7.369,3.302,7.791,3.302z M3.844,4.711c-0.423,0-0.849-0.283-0.849-0.706c0-0.424,0.426-0.704,0.849-0.704
	s0.704,0.28,0.704,0.704C4.548,4.428,4.267,4.711,3.844,4.711z M15.972,9.226c0-2.253-2.258-4.092-4.791-4.092
	c-2.684,0-4.797,1.838-4.797,4.092c0,2.26,2.113,4.094,4.797,4.094c0.563,0,1.128-0.142,1.691-0.283l1.547,0.847l-0.424-1.409
	C15.128,11.625,15.972,10.498,15.972,9.226L15.972,9.226z M9.626,8.521c-0.282,0-0.565-0.279-0.565-0.564
	c0-0.281,0.283-0.564,0.565-0.564c0.426,0,0.705,0.283,0.705,0.564C10.331,8.242,10.052,8.521,9.626,8.521z M12.728,8.521
	c-0.279,0-0.56-0.279-0.56-0.564c0-0.281,0.28-0.564,0.56-0.564c0.422,0,0.706,0.283,0.706,0.564
	C13.434,8.242,13.149,8.521,12.728,8.521z"/>
</svg>
