<?xml version="1.0" encoding="utf-8"?>
<!-- Generator: Adobe Illustrator 15.0.0, SVG Export Plug-In . SVG Version: 6.00 Build 0)  -->
<!DOCTYPE svg PUBLIC "-//W3C//DTD SVG 1.1//EN" "http://www.w3.org/Graphics/SVG/1.1/DTD/svg11.dtd">
<svg version="1.1" id="图层_1" xmlns="http://www.w3.org/2000/svg" xmlns:xlink="http://www.w3.org/1999/xlink" x="0px" y="0px"
	 width="16px" height="16px" viewBox="0 0 16 16" enable-background="new 0 0 16 16" xml:space="preserve">
<path d="M15.804,3.545c0.336-1.11,0.464-3.25-1.64-3.527C12.483-0.18,10.465,0.85,9.412,1.526c-0.334-0.04-0.713-0.08-1.092-0.08
	c-2.734-0.04-4.499,0.832-6.013,2.695c-0.546,0.673-1.049,1.824-1.22,3.13C1.845,6.042,4.2,3.784,6.681,2.872
	c0,0-3.742,2.537-5.593,6.104v0.04C1.003,9.174,0.92,9.332,0.835,9.531c-1.807,4.239-0.336,6.063,1.052,6.379
	c1.26,0.317,3.027-0.276,4.456-1.703c2.396,0.515,4.793-0.08,5.676-0.515c1.682-0.871,2.859-2.417,3.112-4.004h-4.626
	c0,0-0.211,1.387-2.692,1.387c-2.27,0-2.396-2.496-2.396-2.496h9.796c0,0,0.168-2.695-1.221-4.479
	c-0.799-0.99-1.85-1.863-3.32-2.339c0.463-0.316,1.221-0.793,1.892-0.952c1.261-0.316,2.104-0.118,2.649,0.753
	c0.714,1.188-0.421,3.923-0.421,3.923S15.468,4.695,15.804,3.545z M5.671,14.05c-1.935,1.506-3.531,1.309-4.163,0.437
	c-0.546-0.794-0.631-2.18,0-4.123c0.293,0.755,0.756,1.469,1.429,2.101C3.779,13.256,4.704,13.771,5.671,14.05z M5.586,6.32
	c0,0,0.085-1.783,2.145-1.941c1.767-0.158,2.69,0.595,2.984,2.022L5.586,6.32z"/>
</svg>
