<?xml version="1.0" standalone="no"?><!DOCTYPE svg PUBLIC "-//W3C//DTD SVG 1.1//EN" "http://www.w3.org/Graphics/SVG/1.1/DTD/svg11.dtd"><svg t="1585192832559" class="icon" viewBox="0 0 1024 1024" version="1.1" xmlns="http://www.w3.org/2000/svg" p-id="75644" xmlns:xlink="http://www.w3.org/1999/xlink" width="16" height="16"><defs><style type="text/css"></style></defs><path d="M433.326512 1018.880646c1.663374-15.674103 2.750965-29.428927 4.606267-42.927848 3.198796-23.543142 7.037352-46.894356 10.492053-70.373522 1.663374-11.771571 2.750965-23.607118 4.158435-35.378689l7.22928-54.37954c1.40747-10.492052 2.814941-21.112057 3.966508-31.668085 1.599398-15.802054 2.750965-31.668085 4.478315-47.470139 0.895663-8.444823 2.686989-16.825669 3.518676-25.270492 1.791326-17.401453-5.373978-33.075555-10.044221-49.261465-1.535422-5.757834-3.77458-11.515667-4.542291-17.337477-0.191928-1.855302 3.4547-6.013737 5.310002-6.013737 33.907242-0.383856 67.750509-0.255904 101.593775-0.255904 4.862171 0 6.653497 1.151567 4.862171 6.589521-3.838556 11.451691-6.781448 23.031334-9.980245 34.547001-1.279519 4.606267-2.878917 9.212534-3.646628 13.946753-2.686989 16.121934-0.383856 31.987965 2.942893 47.981947 2.431085 11.323739 3.198796 22.903383 4.286387 34.419049 1.535422 16.761693 2.431085 33.587363 4.478315 50.285081 3.134821 24.438805 7.037352 48.749658 10.428076 73.124487 1.599398 10.875908 2.942893 21.751816 3.966508 32.627723 1.663374 16.441814 2.878917 32.947603 4.478315 49.325442 0.959639 10.044221 2.303133 20.024466 3.902532 29.940735 0.255904 1.919278 2.814941 3.4547 5.949761 6.973376 4.734219-18.105188 8.508799-33.715315 12.859162-49.19749 4.350363-15.86603 9.340486-31.540133 13.882777-47.342187 3.134821-11.00386 5.757834-22.199647 8.700726-33.267483 3.390724-12.027475 6.973376-23.990973 10.236149-36.082424 3.070845-11.00386 5.629882-22.135671 8.764702-33.139531 3.198796-11.835547 6.717473-23.607118 10.044221-35.442665 2.942893-10.875908 5.82181-22.00772 8.892654-32.947604 3.390724-12.41133 7.037352-24.694709 10.428076-37.170014 3.006869-11.323739 5.565906-22.775431 8.636751-34.035195 3.198796-11.835547 6.9094-23.543142 10.236148-35.250737 3.006869-10.747956 5.629882-21.559888 8.572775-32.307844 1.279519-4.926147 1.40747-11.515667 4.606267-14.202656 3.838556-3.198796 11.451691-5.246026 15.86603-3.710604 20.472297 7.293256 40.304835 16.18591 60.521229 24.054949 20.856153 8.124943 41.968209 15.674103 62.888338 23.607118 16.633742 6.333617 33.267483 12.73121 49.773273 19.320731 21.303984 8.508799 41.64833 18.553019 60.265325 32.05194 16.761693 12.219402 29.940735 27.253746 37.425919 46.062669 3.390724 8.316871 3.262772 17.91326 4.222411 27.061818 1.663374 16.697717 2.559037 33.523387 4.286387 50.28508 2.111206 19.704586 4.734219 39.345196 7.037352 59.049783l0.255904 2.686989c1.471446 19.96049 2.878917 39.729052 4.478315 59.56159 1.087591 13.754825 2.175182 27.509649 4.030484 41.072546 2.878917 21.943744-20.856153 44.78315-44.335319 44.591223-128.719569-1.151567-257.375163-0.831687-386.222684-0.831687-180.732 0-361.527975 0.127952-542.387926 0.575783-16.057958 0-29.940735-3.4547-38.897365-16.249886-10.747956-15.482175-12.155427-33.267483-7.869039-51.308695 0.447832-1.791326 1.40747-3.518676 1.40747-5.246026 1.599398-19.576634 2.686989-39.153269 4.606267-58.665927 1.72735-16.633742 4.478315-33.203507 6.653496-49.773273l0.31988-2.750965c1.471446-19.512658 1.215543-39.409172 4.862171-58.537975 3.518676-18.616995 0.511807-38.385557 13.243017-55.723034 12.795186-17.081573 27.893505-31.092302 45.614837-42.288089 26.997842-17.145549 57.706288-26.486035 87.519071-37.809774 23.479166-8.95663 46.574476-18.808923 69.989667-28.149409 19.64061-7.805063 39.473148-15.546151 59.369662-22.775431 9.212534-3.4547 17.59338 2.878917 19.704586 12.283379 2.814941 12.155427 6.973376 24.118925 10.236149 36.274351 3.006869 11.00386 5.565906 22.135671 8.572774 33.203508 3.262772 12.091451 7.037352 24.054949 10.364101 36.210375 2.878917 10.68398 5.565906 21.495912 8.572774 32.243869 4.670243 17.017597 9.596389 33.907242 14.266632 50.988815 3.006869 10.68398 5.629882 21.431936 8.444823 32.115916 3.4547 12.475306 7.165304 24.758685 10.556028 37.170015 3.006869 11.067836 5.50193 22.199647 8.572775 33.267483 3.326748 12.091451 6.973376 24.054949 10.236149 36.1464 3.070845 11.067836 5.82181 22.135671 8.700726 33.267483 3.966508 15.354223 7.805063 30.772422 12.09145 46.062669 0.447832 1.919278 3.390724 3.006869 6.461569 5.565906zM272.938858 258.462753c3.582652-19.512658 7.741087-43.69556 12.603258-67.814484 5.629882-28.59724 18.553019-54.37954 34.355074-78.818345A239.909734 239.909734 0 0 1 412.022528 27.765553c17.273501-8.95663 35.442665-16.249886 55.019299-19.192779 14.522536-2.111206 28.981096-5.82181 43.503632-5.949761 15.098319-0.127952 30.388566 2.367109 45.294957 5.373978 13.946753 2.814941 27.957481 6.717473 41.072547 12.091451a229.865513 229.865513 0 0 1 92.445217 68.774123c18.361092 22.519527 32.819652 46.894356 43.311704 73.316415 6.077713 15.162295 9.084582 31.604109 12.475307 47.662067 2.942893 14.522536 6.397593 29.428927 6.269641 44.143391a471.246693 471.246693 0 0 1-5.885786 60.841109c-1.599398 11.899523-5.054098 23.479166-7.805063 35.186761-5.18205 22.391575-15.098319 42.863872-25.718324 63.144242-18.105188 34.547002-42.607969 63.847977-73.124487 88.606662a205.170804 205.170804 0 0 1-66.662918 36.594231c-21.815792 7.037352-43.951463 11.899523-66.79087 10.428076a203.187551 203.187551 0 0 1-101.849679-34.802905c-27.125794-18.361092-50.860864-40.368811-68.454244-67.750509a518.652857 518.652857 0 0 1-33.587363-58.985806c-8.124943-17.401453-13.498921-36.210376-18.872899-54.69942-2.814941-9.27651-3.262772-19.192779-4.478315-28.789168-1.663374-13.434945-3.134821-26.741938-5.246026-45.294958z" p-id="75645"></path></svg>