<?xml version="1.0" encoding="utf-8"?>
<!-- Generator: Adobe Illustrator 15.0.0, SVG Export Plug-In . SVG Version: 6.00 Build 0)  -->
<!DOCTYPE svg PUBLIC "-//W3C//DTD SVG 1.1//EN" "http://www.w3.org/Graphics/SVG/1.1/DTD/svg11.dtd">
<svg version="1.1" id="图层_1" xmlns="http://www.w3.org/2000/svg" xmlns:xlink="http://www.w3.org/1999/xlink" x="0px" y="0px"
	 width="16px" height="16px" viewBox="0 0 16 16" enable-background="new 0 0 16 16" xml:space="preserve">
<path d="M16,6.775v7.079c-0.011,0.604-0.222,1.109-0.635,1.518c-0.41,0.408-0.919,0.618-1.527,0.629H2.163
	c-0.608-0.011-1.119-0.221-1.529-0.629C0.222,14.963,0.011,14.457,0,13.854V6.875l6.488,3.656c0.496,0.27,1.036,0.402,1.622,0.402
	c0.585,0,1.125-0.133,1.622-0.402l0.438-0.218l3.666-2.147L16,6.775z M8.153,9.375c-0.321,0-0.623-0.084-0.903-0.251L2.383,6.338
	V1.073c0-0.324,0.099-0.582,0.295-0.771C2.875,0.111,3.136,0.011,3.464,0h9.192c0.327,0.011,0.585,0.111,0.777,0.302
	c0.191,0.19,0.293,0.448,0.304,0.771V6.34L8.972,9.124C8.746,9.291,8.474,9.375,8.153,9.375L8.153,9.375z M6.252,4.805
	c0.282,0.408,0.72,0.774,1.318,1.099c0.169,0.111,0.366,0.168,0.592,0.168c0.225,0,0.422-0.057,0.592-0.168
	C9.295,5.535,9.7,5.152,9.97,4.755c0.271-0.396,0.405-0.836,0.405-1.316c0-0.324-0.112-0.599-0.338-0.823
	C9.813,2.394,9.531,2.275,9.192,2.265c-0.214,0-0.408,0.048-0.584,0.142c-0.174,0.096-0.34,0.227-0.498,0.394
	c0,0.045-0.018,0.056-0.051,0.033L8.01,2.801c-0.113-0.112-0.251-0.21-0.414-0.293C7.432,2.424,7.243,2.376,7.03,2.365
	C6.692,2.376,6.411,2.494,6.184,2.717C5.959,2.94,5.847,3.22,5.847,3.556C5.834,3.981,5.971,4.396,6.252,4.805z"/>
</svg>
