<?xml version="1.0" encoding="utf-8"?>
<!-- Generator: Adobe Illustrator 15.0.0, SVG Export Plug-In . SVG Version: 6.00 Build 0)  -->
<!DOCTYPE svg PUBLIC "-//W3C//DTD SVG 1.1//EN" "http://www.w3.org/Graphics/SVG/1.1/DTD/svg11.dtd">
<svg version="1.1" id="图层_1" xmlns="http://www.w3.org/2000/svg" xmlns:xlink="http://www.w3.org/1999/xlink" x="0px" y="0px"
	 width="16px" height="16px" viewBox="0 0 16 16" enable-background="new 0 0 16 16" xml:space="preserve">
<path d="M9.828,9.498c-0.902,0.723-1.465,1.081-2.027,1.081c-0.539,0-1.084-0.336-1.926-0.992L0.861,14h14.12L9.885,9.455
	C9.867,9.469,9.846,9.485,9.828,9.498z"/>
<path d="M3.881,8.045C2.691,7.126,1.318,6.064,0,5.022v8.317c0,0.027,0.013,0.049,0.015,0.074L5.07,8.965
	C4.704,8.68,4.311,8.376,3.881,8.045z"/>
<path d="M15.961,13.533C15.98,13.473,16,13.41,16,13.34v-8.67c-1.582,1.23-3.873,3.014-5.318,4.156L15.961,13.533z"/>
<path d="M15,2H1C0.635,2,0,2.636,0,3v0.788c1.475,1.174,3.076,2.41,4.433,3.457c0.749,0.578,1.419,1.097,1.949,1.51
	c1.426,1.118,1.426,1.118,2.883-0.046c1.317-1.052,4.86-3.81,6.735-5.268V3.001C16,2.635,15.365,2,15,2z"/>
</svg>
