<?xml version="1.0" encoding="utf-8"?>
<!-- Generator: Adobe Illustrator 15.0.0, SVG Export Plug-In . SVG Version: 6.00 Build 0)  -->
<!DOCTYPE svg PUBLIC "-//W3C//DTD SVG 1.1//EN" "http://www.w3.org/Graphics/SVG/1.1/DTD/svg11.dtd">
<svg version="1.1" id="图层_1" xmlns="http://www.w3.org/2000/svg" xmlns:xlink="http://www.w3.org/1999/xlink" x="0px" y="0px"
	 width="16.016px" height="16px" viewBox="0 0 16.016 16" enable-background="new 0 0 16.016 16" xml:space="preserve">
<path d="M13.715,7.429c-0.403,0.004-0.797,0.114-1.144,0.32V4.32c0-0.492-0.399-0.891-0.892-0.891c-0.004,0-0.008,0-0.012,0H8.24
	C8.454,3.085,8.568,2.69,8.571,2.286C8.571,1.023,7.548,0,6.286,0S4,1.023,4,2.286c0.004,0.402,0.115,0.797,0.32,1.143H0.983
	C0.438,3.435,0,3.878,0,4.423v3.326c0.344-0.21,0.74-0.321,1.143-0.32c1.262,0,2.286,1.023,2.286,2.286
	C3.429,10.977,2.405,12,1.143,12C0.74,12.001,0.344,11.891,0,11.68v3.429C0,15.601,0.399,16,0.892,16l0,0h10.776
	c0.492,0.006,0.896-0.388,0.903-0.88c0-0.004,0-0.008,0-0.012V11.68c1.086,0.645,2.487,0.286,3.132-0.799
	c0.645-1.086,0.286-2.488-0.799-3.133C14.544,7.535,14.133,7.424,13.715,7.429z"/>
</svg>
