<?xml version="1.0" encoding="utf-8"?>
<!-- Generator: Adobe Illustrator 15.0.0, SVG Export Plug-In . SVG Version: 6.00 Build 0)  -->
<!DOCTYPE svg PUBLIC "-//W3C//DTD SVG 1.1//EN" "http://www.w3.org/Graphics/SVG/1.1/DTD/svg11.dtd">
<svg version="1.1" id="图层_1" xmlns="http://www.w3.org/2000/svg" xmlns:xlink="http://www.w3.org/1999/xlink" x="0px" y="0px"
	 width="16px" height="16px" viewBox="0 0 16 16" enable-background="new 0 0 16 16" xml:space="preserve">
<path d="M7.86,6.644C7.86,6.597,7.86,6.597,7.86,6.644z M10.994,10.012H10.9C10.9,10.012,10.947,10.059,10.994,10.012z M8,0
	C3.602,0,0,3.556,0,8c0,4.443,3.556,8,8,8c4.396,0,8-3.557,8-8C16,3.556,12.443,0,8,0z M13.1,3.135c-0.279,0-0.468,0-0.701,0.14
	c-0.094,0.047-0.141,0.141-0.281,0.188c-0.094,0.047-0.232,0-0.327,0.047c-0.374,0.14-0.328,0.889-0.795,0.795
	C10.76,4.257,10.62,3.977,10.479,3.79c-0.092-0.141-0.278-0.28-0.14-0.468H10.15c0.096-0.187,0.328-0.14,0.375-0.234
	c0.095-0.234-0.279-0.234-0.42-0.281c0.141-0.141,0.188,0.047,0.328,0c0.14-0.047-0.047-0.188-0.142-0.234
	c-0.047,0-0.469,0.14-0.233-0.094C9.73,2.293,9.402,2.059,9.076,1.872C9.027,2.105,9.497,2.246,9.684,2.293
	C9.639,2.386,9.497,2.526,9.404,2.48C9.311,2.434,9.355,2.246,9.17,2.293C9.076,2.573,9.402,2.48,9.451,2.667
	C9.497,2.854,9.311,2.76,9.264,2.76c0,0-0.14-0.141-0.14-0.047c0,0.094,0.187,0.094,0.231,0.188c-0.231,0-0.373-0.094-0.561-0.188
	c-0.234-0.14-0.328-0.14-0.608-0.14C8.28,2.526,8.374,2.526,8.468,2.479c0.048-0.047,0.187-0.187,0.187-0.233
	c0.047-0.141,0-0.141-0.139-0.234C8.468,1.965,8.328,1.778,8.141,1.778C7.626,1.685,7.953,2.246,7.579,2.339
	c-0.094,0-0.28-0.046-0.327,0.046C7.205,2.433,7.205,2.573,7.158,2.62C7.064,2.713,6.924,2.713,6.831,2.807
	C6.737,2.854,6.503,3.041,6.456,3.135C6.222,3.556,6.924,3.696,7.205,3.79c0.14,0.047,0.467,0.14,0.514,0.234
	c0.094,0.141-0.093,0.234,0.094,0.328C7.86,4.398,8,4.398,8.047,4.304C8.141,4.21,8,4.21,8,4.07C7.953,3.883,8.047,3.93,8.141,3.883
	c0.187-0.14,0.14-0.187,0.094-0.42C8.188,3.369,8.047,3.041,8.188,2.947c0.14-0.093,0.468,0.047,0.608,0.094
	c0.142,0,0.231,0.188,0.28,0.281c0.048,0.047,0.14,0.141,0.232,0.141c0.143,0,0.094-0.141,0.143-0.188
	c0.232-0.14,0.279,0.047,0.373,0.234c0.095,0.187,0.141,0.233,0.281,0.374c0.045,0.047,0.373,0.234,0.328,0.375
	c0,0.094-0.328,0.188-0.422,0.234C9.684,4.585,9.076,4.304,9.027,4.818c0.143-0.046,0.47-0.327,0.563-0.186
	c0.048,0.047-0.047,0.141,0,0.233c0.048,0.188,0.188,0.141,0.374,0.094H9.919c0.188-0.094,0.188-0.094,0.28-0.233
	c0.047-0.047,0.094-0.188,0.14-0.234c0.14-0.14,0.188-0.046,0.281,0.047c0.046,0.047,0.233,0.374,0.187,0.327
	c-0.279-0.047-0.514-0.047-0.748,0.094c-0.14,0.094-0.233,0.187-0.375,0.234c-0.045,0-0.326,0.047-0.279,0
	C9.451,5.146,9.591,5.1,9.684,5.006C9.497,4.912,9.355,5.1,9.216,5.193C9.076,5.24,9.027,5.38,8.938,5.521
	c-0.049,0.046-0.142,0.046-0.188,0.14c-0.048,0.047-0.048,0.14-0.095,0.234c-0.047,0.047-0.139,0-0.139,0.094
	c-0.048,0.093,0.045,0.14,0,0.233C8.468,6.316,8.281,6.409,8.188,6.503l0.047-0.047C8.141,6.55,8.047,6.597,8,6.69
	c0.047,0.141,0.141,0.468,0.094,0.515C7.86,7.392,7.719,7.018,7.626,6.924C7.392,6.597,6.971,6.831,6.644,6.831
	C6.269,6.877,5.895,7.345,6.128,7.766C6.229,7.95,6.439,8.045,6.644,8c0.187-0.047,0.234-0.328,0.421-0.328c0.327,0,0,0.328,0,0.468
	C7.018,8.234,7.112,8.28,7.206,8.28c0.094,0,0.233-0.046,0.28,0C7.533,8.327,7.533,8.468,7.58,8.421
	C7.438,8.516,7.485,8.796,7.626,8.889c0.14,0.094,0.327,0,0.468,0.049c0.281,0.092,0.141,0,0.422-0.188c0.187-0.095,0.187,0,0.327,0
	c0.095,0,0.14-0.095,0.281-0.095c0.092,0.047,0.14,0.095,0.278,0.142h0.142c0.233,0.047,0.421,0.187,0.606,0.328
	c0.143,0.092,0.283,0.092,0.47,0.14c0.14,0.047,0.374,0.233,0.374,0.42c0,0.049-0.141,0.188-0.141,0.235
	c0.047,0.046,0.279-0.048,0.328-0.048c0,0.048-0.188,0.141-0.188,0.094c0,0.047,0.094,0.094,0.14,0.094
	c0.096-0.279,0.235-0.094,0.375-0.047c0.141,0.047,0.327,0.047,0.469,0.096c0.14,0.045,0.42,0.14,0.515,0.231
	c0.094,0.14,0.048,0.327-0.048,0.468c-0.092,0.188-0.279,0.234-0.373,0.422c-0.047,0.142,0,0.328-0.047,0.469
	c-0.047,0.232-0.094,0.14-0.234,0.279c-0.141,0.141,0,0.094-0.188,0.188c-0.188,0.094-0.326,0.047-0.469,0.233v-0.047
	c-0.045,0.088-0.076,0.184-0.093,0.28c-0.047,0.14-0.14,0.188-0.233,0.281c-0.048,0.046-0.373,0.514-0.373,0.467
	c-0.047-0.046-0.283,0.047-0.283,0c0,0.047,0,0.047,0.049,0.095c-0.049,0.375-0.234,0.42-0.608,0.42
	c0.048,0.188-0.14,0.142-0.233,0.234c-0.047,0.048-0.047,0.232-0.094,0.28c0,0.047-0.188,0.233-0.188,0.28s0.048,0.095,0.094,0.141
	c-0.281,0.047-0.516,0.094-0.795,0.094c0.047-0.047,0.047-0.14-0.094-0.14c0.047-0.142,0.141-0.188,0.188-0.281v-0.142
	c0.047-0.186,0.047-0.094,0-0.232c-0.094-0.327,0.047-0.421,0.141-0.749c0.093-0.327,0.093-0.7,0.141-1.075
	c0.047-0.141,0.094-0.516,0-0.656c-0.048-0.188-0.328-0.326-0.468-0.42c-0.167-0.166-0.309-0.355-0.422-0.563
	c-0.047-0.092-0.141-0.188-0.188-0.327c-0.093-0.231,0-0.093,0-0.231c0-0.143,0-0.282,0.047-0.424C7.766,9.544,7.907,9.402,8,9.264
	c0.047-0.14,0-0.326-0.14-0.375c-0.094-0.046-0.188,0.049-0.234,0c-0.094,0-0.234-0.093-0.327-0.188
	C7.158,8.607,7.111,8.468,6.971,8.375C6.877,8.281,6.784,8.328,6.644,8.328C6.503,8.281,6.456,8.141,6.363,8.094
	C6.222,8,6.128,8.141,5.989,8.094c-0.141,0-0.328-0.187-0.468-0.234C5.24,7.766,5.1,7.626,5.006,7.345
	C4.912,7.111,4.772,7.018,4.632,6.831C4.492,6.644,4.445,6.503,4.21,6.409c-0.046,0,0.047,0.188,0.047,0.234
	c0.094,0.14,0.234,0.281,0.328,0.468c0.141,0.233,0.094,0.233-0.047,0.047C4.352,6.935,4.18,6.701,4.023,6.456
	c0.094,0.094,0.094,0,0-0.093C3.93,6.269,3.79,6.222,3.743,6.128c-0.327-0.28-0.374-0.701-0.374-1.123
	c0-0.141,0.047-0.233,0.047-0.374c0-0.094-0.094-0.187-0.187-0.281C3.182,4.304,3.135,4.21,3.135,4.21
	C3.041,4.07,2.994,3.977,2.901,3.883C2.765,3.769,2.624,3.66,2.479,3.556c0.756-0.945,1.738-1.685,2.854-2.153
	c0,0.047,0.047,0.094,0.047,0.188c0.14,0.14,0.234,0.14,0.375,0.187c0,0.188-0.281,0.234-0.421,0.188
	C5.146,1.918,4.912,1.872,4.772,2.059C4.865,2.105,5.146,2.339,5.1,2.105h0.562c0.094,0,0.328,0.094,0.375,0.047
	c0.046,0,0.046-0.141,0.093-0.187c-0.047,0-0.093-0.047-0.14,0c0.14-0.141,0.233-0.047,0.42,0.046
	C6.222,2.105,6.363,2.386,6.503,2.152c0.141-0.187-0.047-0.281-0.187-0.375c0.187-0.234,0.281-0.234,0.468,0
	c0.047-0.14,0.141-0.093,0.281-0.093V1.638c-0.047,0-0.14-0.047-0.187-0.047c0.14-0.234,0.047-0.281,0.234-0.328
	c0.141-0.047,0.561,0,0.655-0.14C7.485,1.17,7.111,1.216,6.831,1.31C6.69,1.357,6.597,1.544,6.456,1.45
	C6.316,1.31,6.55,1.123,6.644,1.076H6.597c0.468-0.093,0.982-0.14,1.497-0.14c0.328,0,0.655,0.047,0.982,0.047
	C8.982,1.03,9.027,1.076,8.982,1.123C8.842,1.216,8.561,1.31,8.374,1.403c0.233,0,0.795,0.234,0.89-0.093
	c-0.095,0-0.141,0-0.236-0.047C9.17,1.17,9.311,1.076,9.497,1.03C10.854,1.357,12.164,2.105,13.1,3.135
	C13.146,3.135,13.1,3.135,13.1,3.135z M14.409,5.942c0-0.047,0.047-0.047,0.047-0.047c0.047-0.047,0-0.094,0.047-0.14
	c0.046-0.047,0.095-0.047,0.142-0.094l0.047-0.047c0.14,0.328,0.232,0.655,0.281,1.029L14.83,6.69c-0.094,0-0.141-0.046-0.188-0.093
	l-0.188-0.188c-0.047-0.093,0-0.14,0-0.234C14.409,6.082,14.361,5.989,14.409,5.942z M14.503,9.591
	c-0.138-0.128-0.263-0.269-0.374-0.421c-0.094-0.188-0.048-0.327-0.048-0.516c0-0.139-0.093-0.375,0-0.514L14.223,8
	c0.047-0.093,0.047-0.187,0.141-0.281c0.094-0.093,0.187-0.14,0.281-0.234c0.092-0.094,0.092-0.141,0.141-0.28
	c0.046-0.094,0.14-0.234,0.232-0.281C15.064,7.299,15.111,7.626,15.111,8c0,0.607-0.094,1.264-0.234,1.824
	C14.736,9.775,14.609,9.695,14.503,9.591z"/>
</svg>
